G75*
%MOIN*%
%OFA0B0*%
%FSLAX25Y25*%
%IPPOS*%
%LPD*%
%AMOC8*
5,1,8,0,0,1.08239X$1,22.5*
%
%ADD10C,0.00600*%
%ADD11C,0.01200*%
%ADD12C,0.00300*%
%ADD13C,0.00800*%
%ADD14R,1.00000X0.17500*%
%ADD15C,0.00000*%
%ADD16C,0.00100*%
D10*
X0027798Y0090300D02*
X0029576Y0090300D01*
X0029640Y0090302D01*
X0029705Y0090308D01*
X0029768Y0090317D01*
X0029831Y0090331D01*
X0029893Y0090348D01*
X0029954Y0090369D01*
X0030014Y0090394D01*
X0030072Y0090422D01*
X0030128Y0090454D01*
X0030182Y0090489D01*
X0030234Y0090527D01*
X0030284Y0090568D01*
X0030330Y0090613D01*
X0030375Y0090659D01*
X0030416Y0090709D01*
X0030454Y0090761D01*
X0030489Y0090815D01*
X0030521Y0090871D01*
X0030549Y0090929D01*
X0030574Y0090989D01*
X0030595Y0091050D01*
X0030612Y0091112D01*
X0030626Y0091175D01*
X0030635Y0091238D01*
X0030641Y0091303D01*
X0030643Y0091367D01*
X0030642Y0091367D02*
X0030642Y0093500D01*
X0030643Y0093500D02*
X0030641Y0093564D01*
X0030635Y0093629D01*
X0030626Y0093692D01*
X0030612Y0093755D01*
X0030595Y0093817D01*
X0030574Y0093878D01*
X0030549Y0093938D01*
X0030521Y0093996D01*
X0030489Y0094052D01*
X0030454Y0094106D01*
X0030416Y0094158D01*
X0030375Y0094208D01*
X0030330Y0094254D01*
X0030284Y0094299D01*
X0030234Y0094340D01*
X0030182Y0094378D01*
X0030128Y0094413D01*
X0030072Y0094445D01*
X0030014Y0094473D01*
X0029954Y0094498D01*
X0029893Y0094519D01*
X0029831Y0094536D01*
X0029768Y0094550D01*
X0029705Y0094559D01*
X0029640Y0094565D01*
X0029576Y0094567D01*
X0027798Y0094567D01*
X0027798Y0096700D02*
X0027798Y0090300D01*
X0032736Y0090300D02*
X0032800Y0090302D01*
X0032865Y0090308D01*
X0032928Y0090317D01*
X0032991Y0090331D01*
X0033053Y0090348D01*
X0033114Y0090369D01*
X0033174Y0090394D01*
X0033232Y0090422D01*
X0033288Y0090454D01*
X0033342Y0090489D01*
X0033394Y0090527D01*
X0033444Y0090568D01*
X0033490Y0090613D01*
X0033535Y0090659D01*
X0033576Y0090709D01*
X0033614Y0090761D01*
X0033649Y0090815D01*
X0033681Y0090871D01*
X0033709Y0090929D01*
X0033734Y0090989D01*
X0033755Y0091050D01*
X0033772Y0091112D01*
X0033786Y0091175D01*
X0033795Y0091238D01*
X0033801Y0091303D01*
X0033803Y0091367D01*
X0033802Y0091367D02*
X0033802Y0096700D01*
X0036385Y0093144D02*
X0036385Y0092433D01*
X0039229Y0092433D01*
X0039229Y0093144D02*
X0039229Y0091367D01*
X0039227Y0091303D01*
X0039221Y0091238D01*
X0039212Y0091175D01*
X0039198Y0091112D01*
X0039181Y0091050D01*
X0039160Y0090989D01*
X0039135Y0090929D01*
X0039107Y0090871D01*
X0039075Y0090815D01*
X0039040Y0090761D01*
X0039002Y0090709D01*
X0038961Y0090659D01*
X0038916Y0090613D01*
X0038870Y0090568D01*
X0038820Y0090527D01*
X0038768Y0090489D01*
X0038714Y0090454D01*
X0038658Y0090422D01*
X0038600Y0090394D01*
X0038540Y0090369D01*
X0038479Y0090348D01*
X0038417Y0090331D01*
X0038354Y0090317D01*
X0038291Y0090308D01*
X0038226Y0090302D01*
X0038162Y0090300D01*
X0036385Y0090300D01*
X0036385Y0093144D02*
X0036387Y0093218D01*
X0036393Y0093293D01*
X0036403Y0093366D01*
X0036416Y0093440D01*
X0036433Y0093512D01*
X0036455Y0093583D01*
X0036479Y0093654D01*
X0036508Y0093722D01*
X0036540Y0093790D01*
X0036576Y0093855D01*
X0036614Y0093918D01*
X0036657Y0093980D01*
X0036702Y0094039D01*
X0036750Y0094096D01*
X0036801Y0094150D01*
X0036855Y0094201D01*
X0036912Y0094249D01*
X0036971Y0094294D01*
X0037033Y0094337D01*
X0037096Y0094375D01*
X0037161Y0094411D01*
X0037229Y0094443D01*
X0037297Y0094472D01*
X0037368Y0094496D01*
X0037439Y0094518D01*
X0037511Y0094535D01*
X0037585Y0094548D01*
X0037658Y0094558D01*
X0037733Y0094564D01*
X0037807Y0094566D01*
X0037881Y0094564D01*
X0037956Y0094558D01*
X0038029Y0094548D01*
X0038103Y0094535D01*
X0038175Y0094518D01*
X0038246Y0094496D01*
X0038317Y0094472D01*
X0038385Y0094443D01*
X0038453Y0094411D01*
X0038518Y0094375D01*
X0038581Y0094337D01*
X0038643Y0094294D01*
X0038702Y0094249D01*
X0038759Y0094201D01*
X0038813Y0094150D01*
X0038864Y0094096D01*
X0038912Y0094039D01*
X0038957Y0093980D01*
X0039000Y0093918D01*
X0039038Y0093855D01*
X0039074Y0093790D01*
X0039106Y0093722D01*
X0039135Y0093654D01*
X0039159Y0093583D01*
X0039181Y0093512D01*
X0039198Y0093440D01*
X0039211Y0093366D01*
X0039221Y0093293D01*
X0039227Y0093218D01*
X0039229Y0093144D01*
X0041704Y0094567D02*
X0041704Y0090300D01*
X0044385Y0090300D02*
X0044385Y0093500D01*
X0044384Y0093500D02*
X0044386Y0093564D01*
X0044392Y0093629D01*
X0044401Y0093692D01*
X0044415Y0093755D01*
X0044432Y0093817D01*
X0044453Y0093878D01*
X0044478Y0093938D01*
X0044506Y0093996D01*
X0044538Y0094052D01*
X0044573Y0094106D01*
X0044611Y0094158D01*
X0044652Y0094208D01*
X0044697Y0094254D01*
X0044743Y0094299D01*
X0044793Y0094340D01*
X0044845Y0094378D01*
X0044899Y0094413D01*
X0044955Y0094445D01*
X0045013Y0094473D01*
X0045073Y0094498D01*
X0045134Y0094519D01*
X0045196Y0094536D01*
X0045259Y0094550D01*
X0045322Y0094559D01*
X0045387Y0094565D01*
X0045451Y0094567D01*
X0047229Y0094567D01*
X0047229Y0096700D02*
X0047229Y0090300D01*
X0050484Y0092967D02*
X0052440Y0094033D01*
X0051729Y0096700D02*
X0051628Y0096698D01*
X0051527Y0096692D01*
X0051427Y0096683D01*
X0051327Y0096669D01*
X0051227Y0096652D01*
X0051128Y0096632D01*
X0051031Y0096607D01*
X0050934Y0096579D01*
X0050838Y0096547D01*
X0050743Y0096511D01*
X0050650Y0096472D01*
X0050559Y0096430D01*
X0050469Y0096384D01*
X0050381Y0096334D01*
X0050295Y0096282D01*
X0050211Y0096226D01*
X0050129Y0096167D01*
X0052439Y0094034D02*
X0052503Y0094074D01*
X0052564Y0094117D01*
X0052623Y0094163D01*
X0052680Y0094212D01*
X0052734Y0094264D01*
X0052785Y0094318D01*
X0052833Y0094376D01*
X0052879Y0094435D01*
X0052921Y0094497D01*
X0052960Y0094562D01*
X0052995Y0094628D01*
X0053027Y0094695D01*
X0053056Y0094765D01*
X0053081Y0094835D01*
X0053102Y0094907D01*
X0053119Y0094980D01*
X0053133Y0095054D01*
X0053142Y0095128D01*
X0053148Y0095203D01*
X0053150Y0095278D01*
X0053151Y0095278D02*
X0053149Y0095352D01*
X0053143Y0095427D01*
X0053133Y0095500D01*
X0053120Y0095574D01*
X0053103Y0095646D01*
X0053081Y0095717D01*
X0053057Y0095788D01*
X0053028Y0095856D01*
X0052996Y0095924D01*
X0052960Y0095989D01*
X0052922Y0096052D01*
X0052879Y0096114D01*
X0052834Y0096173D01*
X0052786Y0096230D01*
X0052735Y0096284D01*
X0052681Y0096335D01*
X0052624Y0096383D01*
X0052565Y0096428D01*
X0052503Y0096471D01*
X0052440Y0096509D01*
X0052375Y0096545D01*
X0052307Y0096577D01*
X0052239Y0096606D01*
X0052168Y0096630D01*
X0052097Y0096652D01*
X0052025Y0096669D01*
X0051951Y0096682D01*
X0051878Y0096692D01*
X0051803Y0096698D01*
X0051729Y0096700D01*
X0053328Y0091189D02*
X0053251Y0091114D01*
X0053171Y0091041D01*
X0053088Y0090972D01*
X0053003Y0090905D01*
X0052916Y0090842D01*
X0052827Y0090782D01*
X0052735Y0090725D01*
X0052642Y0090671D01*
X0052546Y0090621D01*
X0052449Y0090574D01*
X0052350Y0090531D01*
X0052250Y0090491D01*
X0052149Y0090455D01*
X0052046Y0090423D01*
X0051942Y0090394D01*
X0051837Y0090369D01*
X0051731Y0090348D01*
X0051625Y0090331D01*
X0051518Y0090317D01*
X0051410Y0090308D01*
X0051303Y0090302D01*
X0051195Y0090300D01*
X0051121Y0090302D01*
X0051046Y0090308D01*
X0050973Y0090318D01*
X0050899Y0090331D01*
X0050827Y0090348D01*
X0050756Y0090370D01*
X0050685Y0090394D01*
X0050617Y0090423D01*
X0050549Y0090455D01*
X0050484Y0090491D01*
X0050421Y0090529D01*
X0050359Y0090572D01*
X0050300Y0090617D01*
X0050243Y0090665D01*
X0050189Y0090716D01*
X0050138Y0090770D01*
X0050090Y0090827D01*
X0050045Y0090886D01*
X0050002Y0090948D01*
X0049964Y0091011D01*
X0049928Y0091076D01*
X0049896Y0091144D01*
X0049867Y0091212D01*
X0049843Y0091283D01*
X0049821Y0091354D01*
X0049804Y0091426D01*
X0049791Y0091500D01*
X0049781Y0091573D01*
X0049775Y0091648D01*
X0049773Y0091722D01*
X0049775Y0091797D01*
X0049781Y0091872D01*
X0049790Y0091946D01*
X0049804Y0092020D01*
X0049821Y0092093D01*
X0049842Y0092165D01*
X0049867Y0092235D01*
X0049896Y0092305D01*
X0049928Y0092372D01*
X0049963Y0092438D01*
X0050002Y0092503D01*
X0050044Y0092565D01*
X0050090Y0092624D01*
X0050138Y0092682D01*
X0050189Y0092736D01*
X0050243Y0092788D01*
X0050300Y0092837D01*
X0050359Y0092883D01*
X0050420Y0092926D01*
X0050484Y0092966D01*
X0041882Y0096344D02*
X0041527Y0096344D01*
X0041527Y0096700D01*
X0041882Y0096700D01*
X0041882Y0096344D01*
X0058678Y0096700D02*
X0061522Y0096700D01*
X0061522Y0090300D01*
X0064301Y0090300D02*
X0065724Y0093144D01*
X0066079Y0093144D02*
X0067857Y0093144D01*
X0066079Y0093144D02*
X0065996Y0093146D01*
X0065913Y0093152D01*
X0065830Y0093162D01*
X0065747Y0093175D01*
X0065666Y0093193D01*
X0065585Y0093214D01*
X0065506Y0093239D01*
X0065428Y0093268D01*
X0065351Y0093300D01*
X0065276Y0093336D01*
X0065202Y0093375D01*
X0065131Y0093418D01*
X0065061Y0093464D01*
X0064994Y0093514D01*
X0064929Y0093566D01*
X0064867Y0093621D01*
X0064807Y0093680D01*
X0064750Y0093741D01*
X0064696Y0093804D01*
X0064645Y0093870D01*
X0064598Y0093939D01*
X0064553Y0094009D01*
X0064512Y0094082D01*
X0064475Y0094156D01*
X0064440Y0094232D01*
X0064410Y0094310D01*
X0064383Y0094388D01*
X0064360Y0094469D01*
X0064340Y0094550D01*
X0064325Y0094632D01*
X0064313Y0094714D01*
X0064305Y0094797D01*
X0064301Y0094880D01*
X0064301Y0094964D01*
X0064305Y0095047D01*
X0064313Y0095130D01*
X0064325Y0095212D01*
X0064340Y0095294D01*
X0064360Y0095375D01*
X0064383Y0095456D01*
X0064410Y0095534D01*
X0064440Y0095612D01*
X0064475Y0095688D01*
X0064512Y0095762D01*
X0064553Y0095835D01*
X0064598Y0095905D01*
X0064645Y0095974D01*
X0064696Y0096040D01*
X0064750Y0096103D01*
X0064807Y0096164D01*
X0064867Y0096223D01*
X0064929Y0096278D01*
X0064994Y0096330D01*
X0065061Y0096380D01*
X0065131Y0096426D01*
X0065202Y0096469D01*
X0065276Y0096508D01*
X0065351Y0096544D01*
X0065428Y0096576D01*
X0065506Y0096605D01*
X0065585Y0096630D01*
X0065666Y0096651D01*
X0065747Y0096669D01*
X0065830Y0096682D01*
X0065913Y0096692D01*
X0065996Y0096698D01*
X0066079Y0096700D01*
X0067857Y0096700D01*
X0067857Y0090300D01*
X0073281Y0089589D02*
X0070437Y0097411D01*
X0075620Y0094922D02*
X0075620Y0092078D01*
X0075622Y0091995D01*
X0075628Y0091912D01*
X0075638Y0091829D01*
X0075651Y0091746D01*
X0075669Y0091665D01*
X0075690Y0091584D01*
X0075715Y0091505D01*
X0075744Y0091427D01*
X0075776Y0091350D01*
X0075812Y0091275D01*
X0075851Y0091201D01*
X0075894Y0091130D01*
X0075940Y0091060D01*
X0075990Y0090993D01*
X0076042Y0090928D01*
X0076097Y0090866D01*
X0076156Y0090806D01*
X0076217Y0090749D01*
X0076280Y0090695D01*
X0076346Y0090644D01*
X0076415Y0090597D01*
X0076485Y0090552D01*
X0076558Y0090511D01*
X0076632Y0090474D01*
X0076708Y0090439D01*
X0076786Y0090409D01*
X0076864Y0090382D01*
X0076945Y0090359D01*
X0077026Y0090339D01*
X0077108Y0090324D01*
X0077190Y0090312D01*
X0077273Y0090304D01*
X0077356Y0090300D01*
X0077440Y0090300D01*
X0077523Y0090304D01*
X0077606Y0090312D01*
X0077688Y0090324D01*
X0077770Y0090339D01*
X0077851Y0090359D01*
X0077932Y0090382D01*
X0078010Y0090409D01*
X0078088Y0090439D01*
X0078164Y0090474D01*
X0078238Y0090511D01*
X0078311Y0090552D01*
X0078381Y0090597D01*
X0078450Y0090644D01*
X0078516Y0090695D01*
X0078579Y0090749D01*
X0078640Y0090806D01*
X0078699Y0090866D01*
X0078754Y0090928D01*
X0078806Y0090993D01*
X0078856Y0091060D01*
X0078902Y0091130D01*
X0078945Y0091201D01*
X0078984Y0091275D01*
X0079020Y0091350D01*
X0079052Y0091427D01*
X0079081Y0091505D01*
X0079106Y0091584D01*
X0079127Y0091665D01*
X0079145Y0091746D01*
X0079158Y0091829D01*
X0079168Y0091912D01*
X0079174Y0091995D01*
X0079176Y0092078D01*
X0079175Y0092078D02*
X0079175Y0094922D01*
X0079176Y0094922D02*
X0079174Y0095005D01*
X0079168Y0095088D01*
X0079158Y0095171D01*
X0079145Y0095254D01*
X0079127Y0095335D01*
X0079106Y0095416D01*
X0079081Y0095495D01*
X0079052Y0095573D01*
X0079020Y0095650D01*
X0078984Y0095725D01*
X0078945Y0095799D01*
X0078902Y0095870D01*
X0078856Y0095940D01*
X0078806Y0096007D01*
X0078754Y0096072D01*
X0078699Y0096134D01*
X0078640Y0096194D01*
X0078579Y0096251D01*
X0078516Y0096305D01*
X0078450Y0096356D01*
X0078381Y0096403D01*
X0078311Y0096448D01*
X0078238Y0096489D01*
X0078164Y0096526D01*
X0078088Y0096561D01*
X0078010Y0096591D01*
X0077932Y0096618D01*
X0077851Y0096641D01*
X0077770Y0096661D01*
X0077688Y0096676D01*
X0077606Y0096688D01*
X0077523Y0096696D01*
X0077440Y0096700D01*
X0077356Y0096700D01*
X0077273Y0096696D01*
X0077190Y0096688D01*
X0077108Y0096676D01*
X0077026Y0096661D01*
X0076945Y0096641D01*
X0076864Y0096618D01*
X0076786Y0096591D01*
X0076708Y0096561D01*
X0076632Y0096526D01*
X0076558Y0096489D01*
X0076485Y0096448D01*
X0076415Y0096403D01*
X0076346Y0096356D01*
X0076280Y0096305D01*
X0076217Y0096251D01*
X0076156Y0096194D01*
X0076097Y0096134D01*
X0076042Y0096072D01*
X0075990Y0096007D01*
X0075940Y0095940D01*
X0075894Y0095870D01*
X0075851Y0095799D01*
X0075812Y0095725D01*
X0075776Y0095650D01*
X0075744Y0095573D01*
X0075715Y0095495D01*
X0075690Y0095416D01*
X0075669Y0095335D01*
X0075651Y0095254D01*
X0075638Y0095171D01*
X0075628Y0095088D01*
X0075622Y0095005D01*
X0075620Y0094922D01*
X0081610Y0096700D02*
X0083032Y0096700D01*
X0082321Y0096700D02*
X0082321Y0090300D01*
X0083032Y0090300D02*
X0081610Y0090300D01*
X0088680Y0090300D02*
X0088680Y0094567D01*
X0088502Y0096344D02*
X0088858Y0096344D01*
X0088858Y0096700D01*
X0088502Y0096700D01*
X0088502Y0096344D01*
X0091360Y0093500D02*
X0091360Y0090300D01*
X0094205Y0090300D02*
X0094205Y0094567D01*
X0092427Y0094567D01*
X0092363Y0094565D01*
X0092298Y0094559D01*
X0092235Y0094550D01*
X0092172Y0094536D01*
X0092110Y0094519D01*
X0092049Y0094498D01*
X0091989Y0094473D01*
X0091931Y0094445D01*
X0091875Y0094413D01*
X0091821Y0094378D01*
X0091769Y0094340D01*
X0091719Y0094299D01*
X0091673Y0094254D01*
X0091628Y0094208D01*
X0091587Y0094158D01*
X0091549Y0094106D01*
X0091514Y0094052D01*
X0091482Y0093996D01*
X0091454Y0093938D01*
X0091429Y0093878D01*
X0091408Y0093817D01*
X0091391Y0093755D01*
X0091377Y0093692D01*
X0091368Y0093629D01*
X0091362Y0093564D01*
X0091360Y0093500D01*
X0096885Y0094567D02*
X0096885Y0090300D01*
X0099675Y0090300D02*
X0099675Y0096700D01*
X0101809Y0093144D01*
X0103942Y0096700D01*
X0103942Y0090300D01*
X0110028Y0091722D02*
X0110028Y0093144D01*
X0110030Y0093218D01*
X0110036Y0093293D01*
X0110046Y0093366D01*
X0110059Y0093440D01*
X0110076Y0093512D01*
X0110098Y0093583D01*
X0110122Y0093654D01*
X0110151Y0093722D01*
X0110183Y0093790D01*
X0110219Y0093855D01*
X0110257Y0093918D01*
X0110300Y0093980D01*
X0110345Y0094039D01*
X0110393Y0094096D01*
X0110444Y0094150D01*
X0110498Y0094201D01*
X0110555Y0094249D01*
X0110614Y0094294D01*
X0110676Y0094337D01*
X0110739Y0094375D01*
X0110804Y0094411D01*
X0110872Y0094443D01*
X0110940Y0094472D01*
X0111011Y0094496D01*
X0111082Y0094518D01*
X0111154Y0094535D01*
X0111228Y0094548D01*
X0111301Y0094558D01*
X0111376Y0094564D01*
X0111450Y0094566D01*
X0111524Y0094564D01*
X0111599Y0094558D01*
X0111672Y0094548D01*
X0111746Y0094535D01*
X0111818Y0094518D01*
X0111889Y0094496D01*
X0111960Y0094472D01*
X0112028Y0094443D01*
X0112096Y0094411D01*
X0112161Y0094375D01*
X0112224Y0094337D01*
X0112286Y0094294D01*
X0112345Y0094249D01*
X0112402Y0094201D01*
X0112456Y0094150D01*
X0112507Y0094096D01*
X0112555Y0094039D01*
X0112600Y0093980D01*
X0112643Y0093918D01*
X0112681Y0093855D01*
X0112717Y0093790D01*
X0112749Y0093722D01*
X0112778Y0093654D01*
X0112802Y0093583D01*
X0112824Y0093512D01*
X0112841Y0093440D01*
X0112854Y0093366D01*
X0112864Y0093293D01*
X0112870Y0093218D01*
X0112872Y0093144D01*
X0112872Y0091722D01*
X0112870Y0091648D01*
X0112864Y0091573D01*
X0112854Y0091500D01*
X0112841Y0091426D01*
X0112824Y0091354D01*
X0112802Y0091283D01*
X0112778Y0091212D01*
X0112749Y0091144D01*
X0112717Y0091076D01*
X0112681Y0091011D01*
X0112643Y0090948D01*
X0112600Y0090886D01*
X0112555Y0090827D01*
X0112507Y0090770D01*
X0112456Y0090716D01*
X0112402Y0090665D01*
X0112345Y0090617D01*
X0112286Y0090572D01*
X0112224Y0090529D01*
X0112161Y0090491D01*
X0112096Y0090455D01*
X0112028Y0090423D01*
X0111960Y0090394D01*
X0111889Y0090370D01*
X0111818Y0090348D01*
X0111746Y0090331D01*
X0111672Y0090318D01*
X0111599Y0090308D01*
X0111524Y0090302D01*
X0111450Y0090300D01*
X0111376Y0090302D01*
X0111301Y0090308D01*
X0111228Y0090318D01*
X0111154Y0090331D01*
X0111082Y0090348D01*
X0111011Y0090370D01*
X0110940Y0090394D01*
X0110872Y0090423D01*
X0110804Y0090455D01*
X0110739Y0090491D01*
X0110676Y0090529D01*
X0110614Y0090572D01*
X0110555Y0090617D01*
X0110498Y0090665D01*
X0110444Y0090716D01*
X0110393Y0090770D01*
X0110345Y0090827D01*
X0110300Y0090886D01*
X0110257Y0090948D01*
X0110219Y0091011D01*
X0110183Y0091076D01*
X0110151Y0091144D01*
X0110122Y0091212D01*
X0110098Y0091283D01*
X0110076Y0091354D01*
X0110059Y0091426D01*
X0110046Y0091500D01*
X0110036Y0091573D01*
X0110030Y0091648D01*
X0110028Y0091722D01*
X0114808Y0093856D02*
X0114808Y0094567D01*
X0116941Y0094567D01*
X0116941Y0090300D01*
X0121213Y0093144D02*
X0122991Y0093144D01*
X0121213Y0093144D02*
X0121130Y0093146D01*
X0121047Y0093152D01*
X0120964Y0093162D01*
X0120881Y0093175D01*
X0120800Y0093193D01*
X0120719Y0093214D01*
X0120640Y0093239D01*
X0120562Y0093268D01*
X0120485Y0093300D01*
X0120410Y0093336D01*
X0120336Y0093375D01*
X0120265Y0093418D01*
X0120195Y0093464D01*
X0120128Y0093514D01*
X0120063Y0093566D01*
X0120001Y0093621D01*
X0119941Y0093680D01*
X0119884Y0093741D01*
X0119830Y0093804D01*
X0119779Y0093870D01*
X0119732Y0093939D01*
X0119687Y0094009D01*
X0119646Y0094082D01*
X0119609Y0094156D01*
X0119574Y0094232D01*
X0119544Y0094310D01*
X0119517Y0094388D01*
X0119494Y0094469D01*
X0119474Y0094550D01*
X0119459Y0094632D01*
X0119447Y0094714D01*
X0119439Y0094797D01*
X0119435Y0094880D01*
X0119435Y0094964D01*
X0119439Y0095047D01*
X0119447Y0095130D01*
X0119459Y0095212D01*
X0119474Y0095294D01*
X0119494Y0095375D01*
X0119517Y0095456D01*
X0119544Y0095534D01*
X0119574Y0095612D01*
X0119609Y0095688D01*
X0119646Y0095762D01*
X0119687Y0095835D01*
X0119732Y0095905D01*
X0119779Y0095974D01*
X0119830Y0096040D01*
X0119884Y0096103D01*
X0119941Y0096164D01*
X0120001Y0096223D01*
X0120063Y0096278D01*
X0120128Y0096330D01*
X0120195Y0096380D01*
X0120265Y0096426D01*
X0120336Y0096469D01*
X0120410Y0096508D01*
X0120485Y0096544D01*
X0120562Y0096576D01*
X0120640Y0096605D01*
X0120719Y0096630D01*
X0120800Y0096651D01*
X0120881Y0096669D01*
X0120964Y0096682D01*
X0121047Y0096692D01*
X0121130Y0096698D01*
X0121213Y0096700D01*
X0122991Y0096700D01*
X0122991Y0090300D01*
X0129105Y0091722D02*
X0129105Y0093144D01*
X0129107Y0093218D01*
X0129113Y0093293D01*
X0129123Y0093366D01*
X0129136Y0093440D01*
X0129153Y0093512D01*
X0129175Y0093583D01*
X0129199Y0093654D01*
X0129228Y0093722D01*
X0129260Y0093790D01*
X0129296Y0093855D01*
X0129334Y0093918D01*
X0129377Y0093980D01*
X0129422Y0094039D01*
X0129470Y0094096D01*
X0129521Y0094150D01*
X0129575Y0094201D01*
X0129632Y0094249D01*
X0129691Y0094294D01*
X0129753Y0094337D01*
X0129816Y0094375D01*
X0129881Y0094411D01*
X0129949Y0094443D01*
X0130017Y0094472D01*
X0130088Y0094496D01*
X0130159Y0094518D01*
X0130231Y0094535D01*
X0130305Y0094548D01*
X0130378Y0094558D01*
X0130453Y0094564D01*
X0130527Y0094566D01*
X0130601Y0094564D01*
X0130676Y0094558D01*
X0130749Y0094548D01*
X0130823Y0094535D01*
X0130895Y0094518D01*
X0130966Y0094496D01*
X0131037Y0094472D01*
X0131105Y0094443D01*
X0131173Y0094411D01*
X0131238Y0094375D01*
X0131301Y0094337D01*
X0131363Y0094294D01*
X0131422Y0094249D01*
X0131479Y0094201D01*
X0131533Y0094150D01*
X0131584Y0094096D01*
X0131632Y0094039D01*
X0131677Y0093980D01*
X0131720Y0093918D01*
X0131758Y0093855D01*
X0131794Y0093790D01*
X0131826Y0093722D01*
X0131855Y0093654D01*
X0131879Y0093583D01*
X0131901Y0093512D01*
X0131918Y0093440D01*
X0131931Y0093366D01*
X0131941Y0093293D01*
X0131947Y0093218D01*
X0131949Y0093144D01*
X0131950Y0093144D02*
X0131950Y0091722D01*
X0131949Y0091722D02*
X0131947Y0091648D01*
X0131941Y0091573D01*
X0131931Y0091500D01*
X0131918Y0091426D01*
X0131901Y0091354D01*
X0131879Y0091283D01*
X0131855Y0091212D01*
X0131826Y0091144D01*
X0131794Y0091076D01*
X0131758Y0091011D01*
X0131720Y0090948D01*
X0131677Y0090886D01*
X0131632Y0090827D01*
X0131584Y0090770D01*
X0131533Y0090716D01*
X0131479Y0090665D01*
X0131422Y0090617D01*
X0131363Y0090572D01*
X0131301Y0090529D01*
X0131238Y0090491D01*
X0131173Y0090455D01*
X0131105Y0090423D01*
X0131037Y0090394D01*
X0130966Y0090370D01*
X0130895Y0090348D01*
X0130823Y0090331D01*
X0130749Y0090318D01*
X0130676Y0090308D01*
X0130601Y0090302D01*
X0130527Y0090300D01*
X0130453Y0090302D01*
X0130378Y0090308D01*
X0130305Y0090318D01*
X0130231Y0090331D01*
X0130159Y0090348D01*
X0130088Y0090370D01*
X0130017Y0090394D01*
X0129949Y0090423D01*
X0129881Y0090455D01*
X0129816Y0090491D01*
X0129753Y0090529D01*
X0129691Y0090572D01*
X0129632Y0090617D01*
X0129575Y0090665D01*
X0129521Y0090716D01*
X0129470Y0090770D01*
X0129422Y0090827D01*
X0129377Y0090886D01*
X0129334Y0090948D01*
X0129296Y0091011D01*
X0129260Y0091076D01*
X0129228Y0091144D01*
X0129199Y0091212D01*
X0129175Y0091283D01*
X0129153Y0091354D01*
X0129136Y0091426D01*
X0129123Y0091500D01*
X0129113Y0091573D01*
X0129107Y0091648D01*
X0129105Y0091722D01*
X0134644Y0090300D02*
X0134644Y0093500D01*
X0134643Y0093500D02*
X0134645Y0093564D01*
X0134651Y0093629D01*
X0134660Y0093692D01*
X0134674Y0093755D01*
X0134691Y0093817D01*
X0134712Y0093878D01*
X0134737Y0093938D01*
X0134765Y0093996D01*
X0134797Y0094052D01*
X0134832Y0094106D01*
X0134870Y0094158D01*
X0134911Y0094208D01*
X0134956Y0094254D01*
X0135002Y0094299D01*
X0135052Y0094340D01*
X0135104Y0094378D01*
X0135158Y0094413D01*
X0135214Y0094445D01*
X0135272Y0094473D01*
X0135332Y0094498D01*
X0135393Y0094519D01*
X0135455Y0094536D01*
X0135518Y0094550D01*
X0135581Y0094559D01*
X0135646Y0094565D01*
X0135710Y0094567D01*
X0137488Y0094567D01*
X0137488Y0090300D01*
X0140169Y0090300D02*
X0140169Y0094567D01*
X0139991Y0096344D02*
X0140346Y0096344D01*
X0140346Y0096700D01*
X0139991Y0096700D01*
X0139991Y0096344D01*
X0142849Y0094567D02*
X0142849Y0090300D01*
X0144627Y0090300D01*
X0144691Y0090302D01*
X0144756Y0090308D01*
X0144819Y0090317D01*
X0144882Y0090331D01*
X0144944Y0090348D01*
X0145005Y0090369D01*
X0145065Y0090394D01*
X0145123Y0090422D01*
X0145179Y0090454D01*
X0145233Y0090489D01*
X0145285Y0090527D01*
X0145335Y0090568D01*
X0145381Y0090613D01*
X0145426Y0090659D01*
X0145467Y0090709D01*
X0145505Y0090761D01*
X0145540Y0090815D01*
X0145572Y0090871D01*
X0145600Y0090929D01*
X0145625Y0090989D01*
X0145646Y0091050D01*
X0145663Y0091112D01*
X0145677Y0091175D01*
X0145686Y0091238D01*
X0145692Y0091303D01*
X0145694Y0091367D01*
X0145694Y0094567D01*
X0148622Y0094567D02*
X0150400Y0094567D01*
X0150464Y0094565D01*
X0150529Y0094559D01*
X0150592Y0094550D01*
X0150655Y0094536D01*
X0150717Y0094519D01*
X0150778Y0094498D01*
X0150838Y0094473D01*
X0150896Y0094445D01*
X0150952Y0094413D01*
X0151006Y0094378D01*
X0151058Y0094340D01*
X0151108Y0094299D01*
X0151154Y0094254D01*
X0151199Y0094208D01*
X0151240Y0094158D01*
X0151278Y0094106D01*
X0151313Y0094052D01*
X0151345Y0093996D01*
X0151373Y0093938D01*
X0151398Y0093878D01*
X0151419Y0093817D01*
X0151436Y0093755D01*
X0151450Y0093692D01*
X0151459Y0093629D01*
X0151465Y0093564D01*
X0151467Y0093500D01*
X0151466Y0093500D02*
X0151466Y0091367D01*
X0151467Y0091367D02*
X0151465Y0091303D01*
X0151459Y0091238D01*
X0151450Y0091175D01*
X0151436Y0091112D01*
X0151419Y0091050D01*
X0151398Y0090989D01*
X0151373Y0090929D01*
X0151345Y0090871D01*
X0151313Y0090815D01*
X0151278Y0090761D01*
X0151240Y0090709D01*
X0151199Y0090659D01*
X0151154Y0090613D01*
X0151108Y0090568D01*
X0151058Y0090527D01*
X0151006Y0090489D01*
X0150952Y0090454D01*
X0150896Y0090422D01*
X0150838Y0090394D01*
X0150778Y0090369D01*
X0150717Y0090348D01*
X0150655Y0090331D01*
X0150592Y0090317D01*
X0150529Y0090308D01*
X0150464Y0090302D01*
X0150400Y0090300D01*
X0148622Y0090300D01*
X0148622Y0096700D01*
X0153373Y0094567D02*
X0153373Y0093856D01*
X0153373Y0094567D02*
X0155507Y0094567D01*
X0155507Y0090300D01*
X0157933Y0090300D02*
X0160067Y0096700D01*
X0162200Y0090300D01*
X0161667Y0091900D02*
X0158467Y0091900D01*
X0097063Y0096344D02*
X0096708Y0096344D01*
X0096708Y0096700D01*
X0097063Y0096700D01*
X0097063Y0096344D01*
X0061522Y0093856D02*
X0058678Y0093856D01*
D11*
X0227500Y0115000D02*
X0227500Y0012500D01*
X0267500Y0012500D01*
X0267500Y0115000D01*
X0227500Y0115000D01*
D12*
X0237650Y0108978D02*
X0237650Y0106923D01*
X0239706Y0108670D01*
X0241350Y0108053D02*
X0241348Y0107985D01*
X0241342Y0107917D01*
X0241333Y0107850D01*
X0241319Y0107784D01*
X0241302Y0107718D01*
X0241281Y0107653D01*
X0241256Y0107590D01*
X0241228Y0107528D01*
X0241196Y0107468D01*
X0241161Y0107410D01*
X0241123Y0107354D01*
X0241081Y0107301D01*
X0241037Y0107249D01*
X0240989Y0107201D01*
X0240939Y0107155D01*
X0240887Y0107112D01*
X0240832Y0107072D01*
X0240775Y0107035D01*
X0240716Y0107002D01*
X0240655Y0106972D01*
X0240592Y0106946D01*
X0240528Y0106923D01*
X0239705Y0108671D02*
X0239749Y0108714D01*
X0239796Y0108755D01*
X0239845Y0108792D01*
X0239896Y0108827D01*
X0239950Y0108858D01*
X0240005Y0108886D01*
X0240062Y0108910D01*
X0240120Y0108931D01*
X0240180Y0108948D01*
X0240240Y0108962D01*
X0240301Y0108971D01*
X0240363Y0108977D01*
X0240425Y0108979D01*
X0240425Y0108978D02*
X0240483Y0108976D01*
X0240541Y0108971D01*
X0240598Y0108962D01*
X0240655Y0108949D01*
X0240711Y0108933D01*
X0240766Y0108913D01*
X0240819Y0108890D01*
X0240871Y0108864D01*
X0240921Y0108834D01*
X0240969Y0108801D01*
X0241015Y0108766D01*
X0241058Y0108727D01*
X0241099Y0108686D01*
X0241138Y0108643D01*
X0241173Y0108597D01*
X0241206Y0108549D01*
X0241236Y0108499D01*
X0241262Y0108447D01*
X0241285Y0108394D01*
X0241305Y0108339D01*
X0241321Y0108283D01*
X0241334Y0108226D01*
X0241343Y0108169D01*
X0241348Y0108111D01*
X0241350Y0108053D01*
X0237856Y0105533D02*
X0237650Y0105533D01*
X0237650Y0105328D01*
X0237856Y0105328D01*
X0237856Y0105533D01*
X0237650Y0103938D02*
X0237650Y0101883D01*
X0237650Y0102910D02*
X0241350Y0102910D01*
X0240528Y0101883D01*
X0240117Y0100493D02*
X0237650Y0099670D01*
X0240117Y0098848D01*
X0237650Y0095734D02*
X0237650Y0094090D01*
X0241350Y0094090D01*
X0241350Y0092298D02*
X0237650Y0092298D01*
X0237650Y0090243D02*
X0241350Y0090243D01*
X0239706Y0090243D02*
X0239706Y0092298D01*
X0240322Y0088578D02*
X0238678Y0088578D01*
X0238615Y0088576D01*
X0238552Y0088570D01*
X0238489Y0088560D01*
X0238427Y0088547D01*
X0238366Y0088530D01*
X0238307Y0088509D01*
X0238248Y0088484D01*
X0238192Y0088456D01*
X0238137Y0088424D01*
X0238084Y0088389D01*
X0238034Y0088351D01*
X0237985Y0088310D01*
X0237940Y0088266D01*
X0237897Y0088219D01*
X0237858Y0088170D01*
X0237821Y0088118D01*
X0237788Y0088064D01*
X0237758Y0088008D01*
X0237731Y0087951D01*
X0237708Y0087892D01*
X0237689Y0087831D01*
X0237674Y0087770D01*
X0237662Y0087708D01*
X0237654Y0087645D01*
X0237650Y0087582D01*
X0237650Y0087518D01*
X0237654Y0087455D01*
X0237662Y0087392D01*
X0237674Y0087330D01*
X0237689Y0087269D01*
X0237708Y0087208D01*
X0237731Y0087149D01*
X0237758Y0087092D01*
X0237788Y0087036D01*
X0237821Y0086982D01*
X0237858Y0086930D01*
X0237897Y0086881D01*
X0237940Y0086834D01*
X0237985Y0086790D01*
X0238034Y0086749D01*
X0238084Y0086711D01*
X0238137Y0086676D01*
X0238192Y0086644D01*
X0238248Y0086616D01*
X0238307Y0086591D01*
X0238366Y0086570D01*
X0238427Y0086553D01*
X0238489Y0086540D01*
X0238552Y0086530D01*
X0238615Y0086524D01*
X0238678Y0086522D01*
X0238678Y0086523D02*
X0240322Y0086523D01*
X0240322Y0086522D02*
X0240385Y0086524D01*
X0240448Y0086530D01*
X0240511Y0086540D01*
X0240573Y0086553D01*
X0240634Y0086570D01*
X0240693Y0086591D01*
X0240752Y0086616D01*
X0240808Y0086644D01*
X0240863Y0086676D01*
X0240916Y0086711D01*
X0240966Y0086749D01*
X0241015Y0086790D01*
X0241060Y0086834D01*
X0241103Y0086881D01*
X0241142Y0086930D01*
X0241179Y0086982D01*
X0241212Y0087036D01*
X0241242Y0087092D01*
X0241269Y0087149D01*
X0241292Y0087208D01*
X0241311Y0087269D01*
X0241326Y0087330D01*
X0241338Y0087392D01*
X0241346Y0087455D01*
X0241350Y0087518D01*
X0241350Y0087582D01*
X0241346Y0087645D01*
X0241338Y0087708D01*
X0241326Y0087770D01*
X0241311Y0087831D01*
X0241292Y0087892D01*
X0241269Y0087951D01*
X0241242Y0088008D01*
X0241212Y0088064D01*
X0241179Y0088118D01*
X0241142Y0088170D01*
X0241103Y0088219D01*
X0241060Y0088266D01*
X0241015Y0088310D01*
X0240966Y0088351D01*
X0240916Y0088389D01*
X0240863Y0088424D01*
X0240808Y0088456D01*
X0240752Y0088484D01*
X0240693Y0088509D01*
X0240634Y0088530D01*
X0240573Y0088547D01*
X0240511Y0088560D01*
X0240448Y0088570D01*
X0240385Y0088576D01*
X0240322Y0088578D01*
X0241350Y0082938D02*
X0237650Y0082938D01*
X0241350Y0080883D01*
X0237650Y0080883D01*
X0237650Y0079241D02*
X0239294Y0078419D01*
X0239294Y0078213D02*
X0239294Y0077185D01*
X0239294Y0078213D02*
X0239296Y0078276D01*
X0239302Y0078339D01*
X0239312Y0078402D01*
X0239325Y0078464D01*
X0239342Y0078525D01*
X0239363Y0078584D01*
X0239388Y0078643D01*
X0239416Y0078699D01*
X0239448Y0078754D01*
X0239483Y0078807D01*
X0239521Y0078857D01*
X0239562Y0078906D01*
X0239606Y0078951D01*
X0239653Y0078994D01*
X0239702Y0079033D01*
X0239754Y0079070D01*
X0239808Y0079103D01*
X0239864Y0079133D01*
X0239921Y0079160D01*
X0239980Y0079183D01*
X0240041Y0079202D01*
X0240102Y0079217D01*
X0240164Y0079229D01*
X0240227Y0079237D01*
X0240290Y0079241D01*
X0240354Y0079241D01*
X0240417Y0079237D01*
X0240480Y0079229D01*
X0240542Y0079217D01*
X0240603Y0079202D01*
X0240664Y0079183D01*
X0240723Y0079160D01*
X0240780Y0079133D01*
X0240836Y0079103D01*
X0240890Y0079070D01*
X0240942Y0079033D01*
X0240991Y0078994D01*
X0241038Y0078951D01*
X0241082Y0078906D01*
X0241123Y0078857D01*
X0241161Y0078807D01*
X0241196Y0078754D01*
X0241228Y0078699D01*
X0241256Y0078643D01*
X0241281Y0078584D01*
X0241302Y0078525D01*
X0241319Y0078464D01*
X0241332Y0078402D01*
X0241342Y0078339D01*
X0241348Y0078276D01*
X0241350Y0078213D01*
X0241350Y0077185D01*
X0237650Y0077185D01*
X0237650Y0075694D02*
X0237650Y0074050D01*
X0241350Y0074050D01*
X0241350Y0075694D01*
X0239706Y0075283D02*
X0239706Y0074050D01*
X0241350Y0072557D02*
X0241350Y0071735D01*
X0241348Y0071679D01*
X0241342Y0071623D01*
X0241333Y0071568D01*
X0241320Y0071513D01*
X0241303Y0071460D01*
X0241282Y0071408D01*
X0241258Y0071357D01*
X0241230Y0071308D01*
X0241200Y0071261D01*
X0241166Y0071216D01*
X0241129Y0071174D01*
X0241089Y0071134D01*
X0241047Y0071097D01*
X0241002Y0071063D01*
X0240955Y0071033D01*
X0240906Y0071005D01*
X0240855Y0070981D01*
X0240803Y0070960D01*
X0240750Y0070943D01*
X0240695Y0070930D01*
X0240640Y0070921D01*
X0240584Y0070915D01*
X0240528Y0070913D01*
X0238472Y0070913D01*
X0238416Y0070915D01*
X0238360Y0070921D01*
X0238305Y0070930D01*
X0238250Y0070943D01*
X0238197Y0070960D01*
X0238145Y0070981D01*
X0238094Y0071005D01*
X0238045Y0071033D01*
X0237998Y0071063D01*
X0237953Y0071097D01*
X0237911Y0071134D01*
X0237871Y0071174D01*
X0237834Y0071216D01*
X0237800Y0071261D01*
X0237770Y0071308D01*
X0237742Y0071357D01*
X0237718Y0071408D01*
X0237697Y0071460D01*
X0237680Y0071513D01*
X0237667Y0071568D01*
X0237658Y0071623D01*
X0237652Y0071679D01*
X0237650Y0071735D01*
X0237650Y0072557D01*
X0237650Y0067493D02*
X0237650Y0066465D01*
X0237652Y0066417D01*
X0237658Y0066368D01*
X0237667Y0066321D01*
X0237680Y0066274D01*
X0237697Y0066229D01*
X0237717Y0066185D01*
X0237741Y0066143D01*
X0237768Y0066102D01*
X0237798Y0066064D01*
X0237831Y0066029D01*
X0237866Y0065996D01*
X0237904Y0065966D01*
X0237945Y0065939D01*
X0237987Y0065915D01*
X0238031Y0065895D01*
X0238076Y0065878D01*
X0238123Y0065865D01*
X0238170Y0065856D01*
X0238219Y0065850D01*
X0238267Y0065848D01*
X0239294Y0065848D01*
X0238883Y0065848D02*
X0238883Y0067493D01*
X0239294Y0067493D01*
X0239350Y0067491D01*
X0239406Y0067485D01*
X0239461Y0067476D01*
X0239516Y0067463D01*
X0239569Y0067446D01*
X0239621Y0067425D01*
X0239672Y0067401D01*
X0239721Y0067373D01*
X0239768Y0067343D01*
X0239813Y0067309D01*
X0239855Y0067272D01*
X0239895Y0067232D01*
X0239932Y0067190D01*
X0239966Y0067145D01*
X0239996Y0067098D01*
X0240024Y0067049D01*
X0240048Y0066998D01*
X0240069Y0066946D01*
X0240086Y0066893D01*
X0240099Y0066838D01*
X0240108Y0066783D01*
X0240114Y0066727D01*
X0240116Y0066671D01*
X0240114Y0066615D01*
X0240108Y0066559D01*
X0240099Y0066504D01*
X0240086Y0066449D01*
X0240069Y0066396D01*
X0240048Y0066344D01*
X0240024Y0066293D01*
X0239996Y0066244D01*
X0239966Y0066197D01*
X0239932Y0066152D01*
X0239895Y0066110D01*
X0239855Y0066070D01*
X0239813Y0066033D01*
X0239768Y0065999D01*
X0239721Y0065969D01*
X0239672Y0065941D01*
X0239621Y0065917D01*
X0239569Y0065896D01*
X0239516Y0065879D01*
X0239461Y0065866D01*
X0239406Y0065857D01*
X0239350Y0065851D01*
X0239294Y0065849D01*
X0239500Y0064253D02*
X0237650Y0064253D01*
X0237650Y0062608D02*
X0241350Y0062608D01*
X0240117Y0062608D02*
X0240117Y0063636D01*
X0240115Y0063684D01*
X0240109Y0063733D01*
X0240100Y0063780D01*
X0240087Y0063827D01*
X0240070Y0063872D01*
X0240050Y0063916D01*
X0240026Y0063958D01*
X0239999Y0063999D01*
X0239969Y0064037D01*
X0239936Y0064072D01*
X0239901Y0064105D01*
X0239863Y0064135D01*
X0239822Y0064162D01*
X0239780Y0064186D01*
X0239736Y0064206D01*
X0239691Y0064223D01*
X0239644Y0064236D01*
X0239597Y0064245D01*
X0239548Y0064251D01*
X0239500Y0064253D01*
X0240117Y0061139D02*
X0240117Y0059906D01*
X0241350Y0060317D02*
X0238267Y0060317D01*
X0238219Y0060319D01*
X0238170Y0060325D01*
X0238123Y0060334D01*
X0238076Y0060347D01*
X0238031Y0060364D01*
X0237987Y0060384D01*
X0237945Y0060408D01*
X0237904Y0060435D01*
X0237866Y0060465D01*
X0237831Y0060498D01*
X0237798Y0060533D01*
X0237768Y0060571D01*
X0237741Y0060612D01*
X0237717Y0060654D01*
X0237697Y0060698D01*
X0237680Y0060743D01*
X0237667Y0060790D01*
X0237658Y0060837D01*
X0237652Y0060886D01*
X0237650Y0060934D01*
X0237650Y0061139D01*
X0239706Y0057142D02*
X0240117Y0057142D01*
X0240117Y0055909D01*
X0237650Y0055909D01*
X0237650Y0054293D02*
X0237650Y0053265D01*
X0237652Y0053217D01*
X0237658Y0053168D01*
X0237667Y0053121D01*
X0237680Y0053074D01*
X0237697Y0053029D01*
X0237717Y0052985D01*
X0237741Y0052943D01*
X0237768Y0052902D01*
X0237798Y0052864D01*
X0237831Y0052829D01*
X0237866Y0052796D01*
X0237904Y0052766D01*
X0237945Y0052739D01*
X0237987Y0052715D01*
X0238031Y0052695D01*
X0238076Y0052678D01*
X0238123Y0052665D01*
X0238170Y0052656D01*
X0238219Y0052650D01*
X0238267Y0052648D01*
X0239294Y0052648D01*
X0238883Y0052648D02*
X0238883Y0054293D01*
X0239294Y0054293D01*
X0239350Y0054291D01*
X0239406Y0054285D01*
X0239461Y0054276D01*
X0239516Y0054263D01*
X0239569Y0054246D01*
X0239621Y0054225D01*
X0239672Y0054201D01*
X0239721Y0054173D01*
X0239768Y0054143D01*
X0239813Y0054109D01*
X0239855Y0054072D01*
X0239895Y0054032D01*
X0239932Y0053990D01*
X0239966Y0053945D01*
X0239996Y0053898D01*
X0240024Y0053849D01*
X0240048Y0053798D01*
X0240069Y0053746D01*
X0240086Y0053693D01*
X0240099Y0053638D01*
X0240108Y0053583D01*
X0240114Y0053527D01*
X0240116Y0053471D01*
X0240114Y0053415D01*
X0240108Y0053359D01*
X0240099Y0053304D01*
X0240086Y0053249D01*
X0240069Y0053196D01*
X0240048Y0053144D01*
X0240024Y0053093D01*
X0239996Y0053044D01*
X0239966Y0052997D01*
X0239932Y0052952D01*
X0239895Y0052910D01*
X0239855Y0052870D01*
X0239813Y0052833D01*
X0239768Y0052799D01*
X0239721Y0052769D01*
X0239672Y0052741D01*
X0239621Y0052717D01*
X0239569Y0052696D01*
X0239516Y0052679D01*
X0239461Y0052666D01*
X0239406Y0052657D01*
X0239350Y0052651D01*
X0239294Y0052649D01*
X0240117Y0051035D02*
X0240117Y0050007D01*
X0240115Y0049959D01*
X0240109Y0049910D01*
X0240100Y0049863D01*
X0240087Y0049816D01*
X0240070Y0049771D01*
X0240050Y0049727D01*
X0240026Y0049685D01*
X0239999Y0049644D01*
X0239969Y0049606D01*
X0239936Y0049571D01*
X0239901Y0049538D01*
X0239863Y0049508D01*
X0239822Y0049481D01*
X0239780Y0049457D01*
X0239736Y0049437D01*
X0239691Y0049420D01*
X0239644Y0049407D01*
X0239597Y0049398D01*
X0239548Y0049392D01*
X0239500Y0049390D01*
X0239500Y0049391D02*
X0238267Y0049391D01*
X0238267Y0049390D02*
X0238219Y0049392D01*
X0238170Y0049398D01*
X0238123Y0049407D01*
X0238076Y0049420D01*
X0238031Y0049437D01*
X0237987Y0049457D01*
X0237945Y0049481D01*
X0237904Y0049508D01*
X0237866Y0049538D01*
X0237831Y0049571D01*
X0237798Y0049606D01*
X0237768Y0049644D01*
X0237741Y0049685D01*
X0237717Y0049727D01*
X0237697Y0049771D01*
X0237680Y0049816D01*
X0237667Y0049863D01*
X0237658Y0049910D01*
X0237652Y0049959D01*
X0237650Y0050007D01*
X0237650Y0051035D01*
X0241350Y0051035D01*
X0239500Y0047813D02*
X0237650Y0047813D01*
X0237650Y0046169D02*
X0240117Y0046169D01*
X0240117Y0047196D01*
X0240115Y0047244D01*
X0240109Y0047293D01*
X0240100Y0047340D01*
X0240087Y0047387D01*
X0240070Y0047432D01*
X0240050Y0047476D01*
X0240026Y0047518D01*
X0239999Y0047559D01*
X0239969Y0047597D01*
X0239936Y0047632D01*
X0239901Y0047665D01*
X0239863Y0047695D01*
X0239822Y0047722D01*
X0239780Y0047746D01*
X0239736Y0047766D01*
X0239691Y0047783D01*
X0239644Y0047796D01*
X0239597Y0047805D01*
X0239548Y0047811D01*
X0239500Y0047813D01*
X0240117Y0044453D02*
X0237650Y0044453D01*
X0237650Y0043425D01*
X0237652Y0043377D01*
X0237658Y0043328D01*
X0237667Y0043281D01*
X0237680Y0043234D01*
X0237697Y0043189D01*
X0237717Y0043145D01*
X0237741Y0043103D01*
X0237768Y0043062D01*
X0237798Y0043024D01*
X0237831Y0042989D01*
X0237866Y0042956D01*
X0237904Y0042926D01*
X0237945Y0042899D01*
X0237987Y0042875D01*
X0238031Y0042855D01*
X0238076Y0042838D01*
X0238123Y0042825D01*
X0238170Y0042816D01*
X0238219Y0042810D01*
X0238267Y0042808D01*
X0238267Y0042809D02*
X0240117Y0042809D01*
X0240117Y0039155D02*
X0240117Y0038127D01*
X0240115Y0038079D01*
X0240109Y0038030D01*
X0240100Y0037983D01*
X0240087Y0037936D01*
X0240070Y0037891D01*
X0240050Y0037847D01*
X0240026Y0037805D01*
X0239999Y0037764D01*
X0239969Y0037726D01*
X0239936Y0037691D01*
X0239901Y0037658D01*
X0239863Y0037628D01*
X0239822Y0037601D01*
X0239780Y0037577D01*
X0239736Y0037557D01*
X0239691Y0037540D01*
X0239644Y0037527D01*
X0239597Y0037518D01*
X0239548Y0037512D01*
X0239500Y0037510D01*
X0239500Y0037511D02*
X0238267Y0037511D01*
X0238267Y0037510D02*
X0238219Y0037512D01*
X0238170Y0037518D01*
X0238123Y0037527D01*
X0238076Y0037540D01*
X0238031Y0037557D01*
X0237987Y0037577D01*
X0237945Y0037601D01*
X0237904Y0037628D01*
X0237866Y0037658D01*
X0237831Y0037691D01*
X0237798Y0037726D01*
X0237768Y0037764D01*
X0237741Y0037805D01*
X0237717Y0037847D01*
X0237697Y0037891D01*
X0237680Y0037936D01*
X0237667Y0037983D01*
X0237658Y0038030D01*
X0237652Y0038079D01*
X0237650Y0038127D01*
X0237650Y0039155D01*
X0241350Y0039155D01*
X0239294Y0036053D02*
X0238883Y0036053D01*
X0238883Y0034409D01*
X0239294Y0034409D02*
X0238267Y0034409D01*
X0238267Y0034408D02*
X0238219Y0034410D01*
X0238170Y0034416D01*
X0238123Y0034425D01*
X0238076Y0034438D01*
X0238031Y0034455D01*
X0237987Y0034475D01*
X0237945Y0034499D01*
X0237904Y0034526D01*
X0237866Y0034556D01*
X0237831Y0034589D01*
X0237798Y0034624D01*
X0237768Y0034662D01*
X0237741Y0034703D01*
X0237717Y0034745D01*
X0237697Y0034789D01*
X0237680Y0034834D01*
X0237667Y0034881D01*
X0237658Y0034928D01*
X0237652Y0034977D01*
X0237650Y0035025D01*
X0237650Y0036053D01*
X0239294Y0036053D02*
X0239350Y0036051D01*
X0239406Y0036045D01*
X0239461Y0036036D01*
X0239516Y0036023D01*
X0239569Y0036006D01*
X0239621Y0035985D01*
X0239672Y0035961D01*
X0239721Y0035933D01*
X0239768Y0035903D01*
X0239813Y0035869D01*
X0239855Y0035832D01*
X0239895Y0035792D01*
X0239932Y0035750D01*
X0239966Y0035705D01*
X0239996Y0035658D01*
X0240024Y0035609D01*
X0240048Y0035558D01*
X0240069Y0035506D01*
X0240086Y0035453D01*
X0240099Y0035398D01*
X0240108Y0035343D01*
X0240114Y0035287D01*
X0240116Y0035231D01*
X0240114Y0035175D01*
X0240108Y0035119D01*
X0240099Y0035064D01*
X0240086Y0035009D01*
X0240069Y0034956D01*
X0240048Y0034904D01*
X0240024Y0034853D01*
X0239996Y0034804D01*
X0239966Y0034757D01*
X0239932Y0034712D01*
X0239895Y0034670D01*
X0239855Y0034630D01*
X0239813Y0034593D01*
X0239768Y0034559D01*
X0239721Y0034529D01*
X0239672Y0034501D01*
X0239621Y0034477D01*
X0239569Y0034456D01*
X0239516Y0034439D01*
X0239461Y0034426D01*
X0239406Y0034417D01*
X0239350Y0034411D01*
X0239294Y0034409D01*
X0238678Y0032625D02*
X0239089Y0031597D01*
X0239108Y0031556D01*
X0239129Y0031517D01*
X0239154Y0031480D01*
X0239182Y0031445D01*
X0239213Y0031412D01*
X0239247Y0031382D01*
X0239282Y0031356D01*
X0239320Y0031332D01*
X0239360Y0031311D01*
X0239402Y0031294D01*
X0239444Y0031281D01*
X0239488Y0031271D01*
X0239532Y0031265D01*
X0239577Y0031262D01*
X0239622Y0031263D01*
X0239666Y0031268D01*
X0239710Y0031277D01*
X0239753Y0031290D01*
X0239795Y0031306D01*
X0239836Y0031325D01*
X0239874Y0031348D01*
X0239911Y0031374D01*
X0239945Y0031403D01*
X0239977Y0031435D01*
X0240006Y0031469D01*
X0240031Y0031505D01*
X0240054Y0031544D01*
X0240074Y0031584D01*
X0240090Y0031626D01*
X0240102Y0031669D01*
X0240111Y0031713D01*
X0240116Y0031758D01*
X0240117Y0031803D01*
X0237855Y0031289D02*
X0237818Y0031398D01*
X0237784Y0031508D01*
X0237754Y0031620D01*
X0237728Y0031732D01*
X0237705Y0031845D01*
X0237686Y0031959D01*
X0237671Y0032074D01*
X0237660Y0032189D01*
X0237653Y0032304D01*
X0237649Y0032419D01*
X0237650Y0032419D02*
X0237651Y0032464D01*
X0237656Y0032509D01*
X0237665Y0032553D01*
X0237677Y0032596D01*
X0237693Y0032638D01*
X0237713Y0032678D01*
X0237736Y0032717D01*
X0237761Y0032753D01*
X0237790Y0032787D01*
X0237822Y0032819D01*
X0237856Y0032848D01*
X0237893Y0032874D01*
X0237931Y0032897D01*
X0237972Y0032916D01*
X0238014Y0032932D01*
X0238057Y0032945D01*
X0238101Y0032954D01*
X0238145Y0032959D01*
X0238190Y0032960D01*
X0238235Y0032957D01*
X0238279Y0032951D01*
X0238323Y0032941D01*
X0238365Y0032928D01*
X0238407Y0032911D01*
X0238447Y0032890D01*
X0238485Y0032866D01*
X0238520Y0032840D01*
X0238554Y0032810D01*
X0238585Y0032777D01*
X0238613Y0032742D01*
X0238638Y0032705D01*
X0238659Y0032666D01*
X0238678Y0032625D01*
X0239911Y0032727D02*
X0239949Y0032639D01*
X0239982Y0032550D01*
X0240012Y0032460D01*
X0240039Y0032368D01*
X0240061Y0032275D01*
X0240080Y0032182D01*
X0240095Y0032088D01*
X0240106Y0031993D01*
X0240113Y0031898D01*
X0240117Y0031802D01*
X0239500Y0029693D02*
X0237650Y0029693D01*
X0237650Y0028049D02*
X0240117Y0028049D01*
X0240117Y0029076D01*
X0240115Y0029124D01*
X0240109Y0029173D01*
X0240100Y0029220D01*
X0240087Y0029267D01*
X0240070Y0029312D01*
X0240050Y0029356D01*
X0240026Y0029398D01*
X0239999Y0029439D01*
X0239969Y0029477D01*
X0239936Y0029512D01*
X0239901Y0029545D01*
X0239863Y0029575D01*
X0239822Y0029602D01*
X0239780Y0029626D01*
X0239736Y0029646D01*
X0239691Y0029663D01*
X0239644Y0029676D01*
X0239597Y0029685D01*
X0239548Y0029691D01*
X0239500Y0029693D01*
X0239294Y0026453D02*
X0238883Y0026453D01*
X0238883Y0024809D01*
X0239294Y0024809D02*
X0238267Y0024809D01*
X0238267Y0024808D02*
X0238219Y0024810D01*
X0238170Y0024816D01*
X0238123Y0024825D01*
X0238076Y0024838D01*
X0238031Y0024855D01*
X0237987Y0024875D01*
X0237945Y0024899D01*
X0237904Y0024926D01*
X0237866Y0024956D01*
X0237831Y0024989D01*
X0237798Y0025024D01*
X0237768Y0025062D01*
X0237741Y0025103D01*
X0237717Y0025145D01*
X0237697Y0025189D01*
X0237680Y0025234D01*
X0237667Y0025281D01*
X0237658Y0025328D01*
X0237652Y0025377D01*
X0237650Y0025425D01*
X0237650Y0026453D01*
X0239294Y0026453D02*
X0239350Y0026451D01*
X0239406Y0026445D01*
X0239461Y0026436D01*
X0239516Y0026423D01*
X0239569Y0026406D01*
X0239621Y0026385D01*
X0239672Y0026361D01*
X0239721Y0026333D01*
X0239768Y0026303D01*
X0239813Y0026269D01*
X0239855Y0026232D01*
X0239895Y0026192D01*
X0239932Y0026150D01*
X0239966Y0026105D01*
X0239996Y0026058D01*
X0240024Y0026009D01*
X0240048Y0025958D01*
X0240069Y0025906D01*
X0240086Y0025853D01*
X0240099Y0025798D01*
X0240108Y0025743D01*
X0240114Y0025687D01*
X0240116Y0025631D01*
X0240114Y0025575D01*
X0240108Y0025519D01*
X0240099Y0025464D01*
X0240086Y0025409D01*
X0240069Y0025356D01*
X0240048Y0025304D01*
X0240024Y0025253D01*
X0239996Y0025204D01*
X0239966Y0025157D01*
X0239932Y0025112D01*
X0239895Y0025070D01*
X0239855Y0025030D01*
X0239813Y0024993D01*
X0239768Y0024959D01*
X0239721Y0024929D01*
X0239672Y0024901D01*
X0239621Y0024877D01*
X0239569Y0024856D01*
X0239516Y0024839D01*
X0239461Y0024826D01*
X0239406Y0024817D01*
X0239350Y0024811D01*
X0239294Y0024809D01*
X0240117Y0023492D02*
X0240117Y0022669D01*
X0240115Y0022621D01*
X0240109Y0022572D01*
X0240100Y0022525D01*
X0240087Y0022478D01*
X0240070Y0022433D01*
X0240050Y0022389D01*
X0240026Y0022347D01*
X0239999Y0022306D01*
X0239969Y0022268D01*
X0239936Y0022233D01*
X0239901Y0022200D01*
X0239863Y0022170D01*
X0239822Y0022143D01*
X0239780Y0022119D01*
X0239736Y0022099D01*
X0239691Y0022082D01*
X0239644Y0022069D01*
X0239597Y0022060D01*
X0239548Y0022054D01*
X0239500Y0022052D01*
X0239500Y0022053D02*
X0238267Y0022053D01*
X0238267Y0022052D02*
X0238219Y0022054D01*
X0238170Y0022060D01*
X0238123Y0022069D01*
X0238076Y0022082D01*
X0238031Y0022099D01*
X0237987Y0022119D01*
X0237945Y0022143D01*
X0237904Y0022170D01*
X0237866Y0022200D01*
X0237831Y0022233D01*
X0237798Y0022268D01*
X0237768Y0022306D01*
X0237741Y0022347D01*
X0237717Y0022389D01*
X0237697Y0022433D01*
X0237680Y0022478D01*
X0237667Y0022525D01*
X0237658Y0022572D01*
X0237652Y0022621D01*
X0237650Y0022669D01*
X0237650Y0023492D01*
X0237650Y0020591D02*
X0240117Y0020591D01*
X0241144Y0020694D02*
X0241144Y0020488D01*
X0241350Y0020488D01*
X0241350Y0020694D01*
X0241144Y0020694D01*
X0241350Y0017650D02*
X0237650Y0017650D01*
X0237650Y0019294D01*
X0249650Y0018883D02*
X0253350Y0020117D01*
X0251294Y0021421D02*
X0250267Y0021421D01*
X0250883Y0021421D02*
X0250883Y0023066D01*
X0251294Y0023066D01*
X0251294Y0023065D02*
X0251350Y0023063D01*
X0251406Y0023057D01*
X0251461Y0023048D01*
X0251516Y0023035D01*
X0251569Y0023018D01*
X0251621Y0022997D01*
X0251672Y0022973D01*
X0251721Y0022945D01*
X0251768Y0022915D01*
X0251813Y0022881D01*
X0251855Y0022844D01*
X0251895Y0022804D01*
X0251932Y0022762D01*
X0251966Y0022717D01*
X0251996Y0022670D01*
X0252024Y0022621D01*
X0252048Y0022570D01*
X0252069Y0022518D01*
X0252086Y0022465D01*
X0252099Y0022410D01*
X0252108Y0022355D01*
X0252114Y0022299D01*
X0252116Y0022243D01*
X0252114Y0022187D01*
X0252108Y0022131D01*
X0252099Y0022076D01*
X0252086Y0022021D01*
X0252069Y0021968D01*
X0252048Y0021916D01*
X0252024Y0021865D01*
X0251996Y0021816D01*
X0251966Y0021769D01*
X0251932Y0021724D01*
X0251895Y0021682D01*
X0251855Y0021642D01*
X0251813Y0021605D01*
X0251768Y0021571D01*
X0251721Y0021541D01*
X0251672Y0021513D01*
X0251621Y0021489D01*
X0251569Y0021468D01*
X0251516Y0021451D01*
X0251461Y0021438D01*
X0251406Y0021429D01*
X0251350Y0021423D01*
X0251294Y0021421D01*
X0250267Y0021421D02*
X0250219Y0021423D01*
X0250170Y0021429D01*
X0250123Y0021438D01*
X0250076Y0021451D01*
X0250031Y0021468D01*
X0249987Y0021488D01*
X0249945Y0021512D01*
X0249904Y0021539D01*
X0249866Y0021569D01*
X0249831Y0021602D01*
X0249798Y0021637D01*
X0249768Y0021675D01*
X0249741Y0021716D01*
X0249717Y0021758D01*
X0249697Y0021802D01*
X0249680Y0021847D01*
X0249667Y0021894D01*
X0249658Y0021941D01*
X0249652Y0021990D01*
X0249650Y0022038D01*
X0249650Y0023066D01*
X0249650Y0024681D02*
X0252117Y0024681D01*
X0252117Y0025915D01*
X0251706Y0025915D01*
X0251089Y0027369D02*
X0250678Y0028397D01*
X0250659Y0028438D01*
X0250638Y0028477D01*
X0250613Y0028514D01*
X0250585Y0028549D01*
X0250554Y0028582D01*
X0250520Y0028612D01*
X0250485Y0028638D01*
X0250447Y0028662D01*
X0250407Y0028683D01*
X0250365Y0028700D01*
X0250323Y0028713D01*
X0250279Y0028723D01*
X0250235Y0028729D01*
X0250190Y0028732D01*
X0250145Y0028731D01*
X0250101Y0028726D01*
X0250057Y0028717D01*
X0250014Y0028704D01*
X0249972Y0028688D01*
X0249931Y0028669D01*
X0249893Y0028646D01*
X0249856Y0028620D01*
X0249822Y0028591D01*
X0249790Y0028559D01*
X0249761Y0028525D01*
X0249736Y0028489D01*
X0249713Y0028450D01*
X0249693Y0028410D01*
X0249677Y0028368D01*
X0249665Y0028325D01*
X0249656Y0028281D01*
X0249651Y0028236D01*
X0249650Y0028191D01*
X0251911Y0028500D02*
X0251949Y0028412D01*
X0251982Y0028323D01*
X0252012Y0028233D01*
X0252039Y0028141D01*
X0252061Y0028048D01*
X0252080Y0027955D01*
X0252095Y0027861D01*
X0252106Y0027766D01*
X0252113Y0027671D01*
X0252117Y0027575D01*
X0252116Y0027530D01*
X0252111Y0027485D01*
X0252102Y0027441D01*
X0252090Y0027398D01*
X0252074Y0027356D01*
X0252054Y0027316D01*
X0252031Y0027277D01*
X0252006Y0027241D01*
X0251977Y0027207D01*
X0251945Y0027175D01*
X0251911Y0027146D01*
X0251874Y0027120D01*
X0251836Y0027097D01*
X0251795Y0027078D01*
X0251753Y0027062D01*
X0251710Y0027049D01*
X0251666Y0027040D01*
X0251622Y0027035D01*
X0251577Y0027034D01*
X0251532Y0027037D01*
X0251488Y0027043D01*
X0251444Y0027053D01*
X0251402Y0027066D01*
X0251360Y0027083D01*
X0251320Y0027104D01*
X0251282Y0027128D01*
X0251247Y0027154D01*
X0251213Y0027184D01*
X0251182Y0027217D01*
X0251154Y0027252D01*
X0251129Y0027289D01*
X0251108Y0027328D01*
X0251089Y0027369D01*
X0249855Y0027061D02*
X0249818Y0027170D01*
X0249784Y0027280D01*
X0249754Y0027392D01*
X0249728Y0027504D01*
X0249705Y0027617D01*
X0249686Y0027731D01*
X0249671Y0027846D01*
X0249660Y0027961D01*
X0249653Y0028076D01*
X0249649Y0028191D01*
X0249650Y0030163D02*
X0252117Y0030163D01*
X0253144Y0030266D02*
X0253144Y0030060D01*
X0253350Y0030060D01*
X0253350Y0030266D01*
X0253144Y0030266D01*
X0254417Y0030025D02*
X0254417Y0029203D01*
X0254416Y0030025D02*
X0254418Y0030073D01*
X0254424Y0030122D01*
X0254433Y0030169D01*
X0254446Y0030216D01*
X0254463Y0030261D01*
X0254483Y0030305D01*
X0254507Y0030347D01*
X0254534Y0030388D01*
X0254564Y0030426D01*
X0254597Y0030461D01*
X0254632Y0030494D01*
X0254670Y0030524D01*
X0254711Y0030551D01*
X0254753Y0030575D01*
X0254797Y0030595D01*
X0254842Y0030612D01*
X0254889Y0030625D01*
X0254936Y0030634D01*
X0254985Y0030640D01*
X0255033Y0030642D01*
X0258117Y0030642D01*
X0258117Y0029614D01*
X0258115Y0029566D01*
X0258109Y0029517D01*
X0258100Y0029470D01*
X0258087Y0029423D01*
X0258070Y0029378D01*
X0258050Y0029334D01*
X0258026Y0029292D01*
X0257999Y0029251D01*
X0257969Y0029213D01*
X0257936Y0029178D01*
X0257901Y0029145D01*
X0257863Y0029115D01*
X0257822Y0029088D01*
X0257780Y0029064D01*
X0257736Y0029044D01*
X0257691Y0029027D01*
X0257644Y0029014D01*
X0257597Y0029005D01*
X0257548Y0028999D01*
X0257500Y0028997D01*
X0257500Y0028998D02*
X0256267Y0028998D01*
X0256267Y0028997D02*
X0256219Y0028999D01*
X0256170Y0029005D01*
X0256123Y0029014D01*
X0256076Y0029027D01*
X0256031Y0029044D01*
X0255987Y0029064D01*
X0255945Y0029088D01*
X0255904Y0029115D01*
X0255866Y0029145D01*
X0255831Y0029178D01*
X0255798Y0029213D01*
X0255768Y0029251D01*
X0255741Y0029292D01*
X0255717Y0029334D01*
X0255697Y0029378D01*
X0255680Y0029423D01*
X0255667Y0029470D01*
X0255658Y0029517D01*
X0255652Y0029566D01*
X0255650Y0029614D01*
X0255650Y0030642D01*
X0255650Y0032375D02*
X0258117Y0032375D01*
X0258117Y0033403D01*
X0258115Y0033451D01*
X0258109Y0033500D01*
X0258100Y0033547D01*
X0258087Y0033594D01*
X0258070Y0033639D01*
X0258050Y0033683D01*
X0258026Y0033725D01*
X0257999Y0033766D01*
X0257969Y0033804D01*
X0257936Y0033839D01*
X0257901Y0033872D01*
X0257863Y0033902D01*
X0257822Y0033929D01*
X0257780Y0033953D01*
X0257736Y0033973D01*
X0257691Y0033990D01*
X0257644Y0034003D01*
X0257597Y0034012D01*
X0257548Y0034018D01*
X0257500Y0034020D01*
X0255650Y0034020D01*
X0252117Y0034861D02*
X0252117Y0035889D01*
X0252115Y0035937D01*
X0252109Y0035986D01*
X0252100Y0036033D01*
X0252087Y0036080D01*
X0252070Y0036125D01*
X0252050Y0036169D01*
X0252026Y0036211D01*
X0251999Y0036252D01*
X0251969Y0036290D01*
X0251936Y0036325D01*
X0251901Y0036358D01*
X0251863Y0036388D01*
X0251822Y0036415D01*
X0251780Y0036439D01*
X0251736Y0036459D01*
X0251691Y0036476D01*
X0251644Y0036489D01*
X0251597Y0036498D01*
X0251548Y0036504D01*
X0251500Y0036506D01*
X0251500Y0036505D02*
X0249650Y0036505D01*
X0249650Y0034861D02*
X0252117Y0034861D01*
X0251294Y0033265D02*
X0250472Y0033265D01*
X0250416Y0033263D01*
X0250360Y0033257D01*
X0250305Y0033248D01*
X0250250Y0033235D01*
X0250197Y0033218D01*
X0250145Y0033197D01*
X0250094Y0033173D01*
X0250045Y0033145D01*
X0249998Y0033115D01*
X0249953Y0033081D01*
X0249911Y0033044D01*
X0249871Y0033004D01*
X0249834Y0032962D01*
X0249800Y0032917D01*
X0249770Y0032870D01*
X0249742Y0032821D01*
X0249718Y0032770D01*
X0249697Y0032718D01*
X0249680Y0032665D01*
X0249667Y0032610D01*
X0249658Y0032555D01*
X0249652Y0032499D01*
X0249650Y0032443D01*
X0249652Y0032387D01*
X0249658Y0032331D01*
X0249667Y0032276D01*
X0249680Y0032221D01*
X0249697Y0032168D01*
X0249718Y0032116D01*
X0249742Y0032065D01*
X0249770Y0032016D01*
X0249800Y0031969D01*
X0249834Y0031924D01*
X0249871Y0031882D01*
X0249911Y0031842D01*
X0249953Y0031805D01*
X0249998Y0031771D01*
X0250045Y0031741D01*
X0250094Y0031713D01*
X0250145Y0031689D01*
X0250197Y0031668D01*
X0250250Y0031651D01*
X0250305Y0031638D01*
X0250360Y0031629D01*
X0250416Y0031623D01*
X0250472Y0031621D01*
X0251294Y0031621D01*
X0251350Y0031623D01*
X0251406Y0031629D01*
X0251461Y0031638D01*
X0251516Y0031651D01*
X0251569Y0031668D01*
X0251621Y0031689D01*
X0251672Y0031713D01*
X0251721Y0031741D01*
X0251768Y0031771D01*
X0251813Y0031805D01*
X0251855Y0031842D01*
X0251895Y0031882D01*
X0251932Y0031924D01*
X0251966Y0031969D01*
X0251996Y0032016D01*
X0252024Y0032065D01*
X0252048Y0032116D01*
X0252069Y0032168D01*
X0252086Y0032221D01*
X0252099Y0032276D01*
X0252108Y0032331D01*
X0252114Y0032387D01*
X0252116Y0032443D01*
X0252114Y0032499D01*
X0252108Y0032555D01*
X0252099Y0032610D01*
X0252086Y0032665D01*
X0252069Y0032718D01*
X0252048Y0032770D01*
X0252024Y0032821D01*
X0251996Y0032870D01*
X0251966Y0032917D01*
X0251932Y0032962D01*
X0251895Y0033004D01*
X0251855Y0033044D01*
X0251813Y0033081D01*
X0251768Y0033115D01*
X0251721Y0033145D01*
X0251672Y0033173D01*
X0251621Y0033197D01*
X0251569Y0033218D01*
X0251516Y0033235D01*
X0251461Y0033248D01*
X0251406Y0033257D01*
X0251350Y0033263D01*
X0251294Y0033265D01*
X0255650Y0037673D02*
X0255650Y0038701D01*
X0255652Y0038749D01*
X0255658Y0038798D01*
X0255667Y0038845D01*
X0255680Y0038892D01*
X0255697Y0038937D01*
X0255717Y0038981D01*
X0255741Y0039023D01*
X0255768Y0039064D01*
X0255798Y0039102D01*
X0255831Y0039137D01*
X0255866Y0039170D01*
X0255904Y0039200D01*
X0255945Y0039227D01*
X0255987Y0039251D01*
X0256031Y0039271D01*
X0256076Y0039288D01*
X0256123Y0039301D01*
X0256170Y0039310D01*
X0256219Y0039316D01*
X0256267Y0039318D01*
X0257500Y0039318D01*
X0257548Y0039316D01*
X0257597Y0039310D01*
X0257644Y0039301D01*
X0257691Y0039288D01*
X0257736Y0039271D01*
X0257780Y0039251D01*
X0257822Y0039227D01*
X0257863Y0039200D01*
X0257901Y0039170D01*
X0257936Y0039137D01*
X0257969Y0039102D01*
X0257999Y0039064D01*
X0258026Y0039023D01*
X0258050Y0038981D01*
X0258070Y0038937D01*
X0258087Y0038892D01*
X0258100Y0038845D01*
X0258109Y0038798D01*
X0258115Y0038749D01*
X0258117Y0038701D01*
X0258117Y0037673D01*
X0259350Y0037673D02*
X0255650Y0037673D01*
X0254417Y0040655D02*
X0254417Y0041067D01*
X0258117Y0042300D01*
X0258117Y0040655D02*
X0255650Y0041478D01*
X0253350Y0041083D02*
X0253348Y0041135D01*
X0253343Y0041188D01*
X0253334Y0041239D01*
X0253321Y0041290D01*
X0253305Y0041340D01*
X0253286Y0041389D01*
X0253263Y0041436D01*
X0253237Y0041482D01*
X0253208Y0041525D01*
X0253176Y0041567D01*
X0253142Y0041606D01*
X0253104Y0041643D01*
X0253064Y0041677D01*
X0253022Y0041709D01*
X0252978Y0041737D01*
X0252932Y0041762D01*
X0252885Y0041784D01*
X0252836Y0041803D01*
X0252528Y0041905D02*
X0250472Y0040261D01*
X0249650Y0041083D02*
X0249652Y0041135D01*
X0249657Y0041188D01*
X0249666Y0041239D01*
X0249679Y0041290D01*
X0249695Y0041340D01*
X0249714Y0041389D01*
X0249737Y0041436D01*
X0249763Y0041482D01*
X0249792Y0041525D01*
X0249824Y0041567D01*
X0249858Y0041606D01*
X0249896Y0041643D01*
X0249936Y0041677D01*
X0249978Y0041709D01*
X0250022Y0041737D01*
X0250068Y0041762D01*
X0250115Y0041784D01*
X0250164Y0041803D01*
X0249650Y0041083D02*
X0249652Y0041031D01*
X0249657Y0040978D01*
X0249666Y0040927D01*
X0249679Y0040876D01*
X0249695Y0040826D01*
X0249714Y0040777D01*
X0249737Y0040730D01*
X0249763Y0040684D01*
X0249792Y0040641D01*
X0249824Y0040599D01*
X0249858Y0040560D01*
X0249896Y0040523D01*
X0249936Y0040489D01*
X0249978Y0040457D01*
X0250022Y0040429D01*
X0250068Y0040404D01*
X0250115Y0040382D01*
X0250164Y0040363D01*
X0251500Y0042111D02*
X0251606Y0042109D01*
X0251713Y0042104D01*
X0251819Y0042094D01*
X0251924Y0042081D01*
X0252029Y0042065D01*
X0252134Y0042044D01*
X0252237Y0042021D01*
X0252340Y0041993D01*
X0252442Y0041962D01*
X0252542Y0041927D01*
X0252642Y0041889D01*
X0252740Y0041848D01*
X0252836Y0041803D01*
X0253350Y0041083D02*
X0253348Y0041031D01*
X0253343Y0040978D01*
X0253334Y0040927D01*
X0253321Y0040876D01*
X0253305Y0040826D01*
X0253286Y0040777D01*
X0253263Y0040730D01*
X0253237Y0040684D01*
X0253208Y0040641D01*
X0253176Y0040599D01*
X0253142Y0040560D01*
X0253104Y0040523D01*
X0253064Y0040489D01*
X0253022Y0040457D01*
X0252978Y0040429D01*
X0252932Y0040404D01*
X0252885Y0040382D01*
X0252836Y0040363D01*
X0251500Y0042111D02*
X0251394Y0042109D01*
X0251287Y0042104D01*
X0251181Y0042094D01*
X0251076Y0042081D01*
X0250971Y0042065D01*
X0250866Y0042044D01*
X0250763Y0042021D01*
X0250660Y0041993D01*
X0250558Y0041962D01*
X0250458Y0041927D01*
X0250358Y0041889D01*
X0250260Y0041848D01*
X0250164Y0041803D01*
X0249856Y0043500D02*
X0249856Y0043706D01*
X0249650Y0043706D01*
X0249650Y0043500D01*
X0249856Y0043500D01*
X0249650Y0045095D02*
X0249650Y0047151D01*
X0249650Y0048527D02*
X0249856Y0048527D01*
X0249856Y0048733D01*
X0249650Y0048733D01*
X0248828Y0048424D01*
X0249650Y0048527D02*
X0249650Y0048733D01*
X0251706Y0046843D02*
X0249650Y0045095D01*
X0250164Y0040364D02*
X0250260Y0040319D01*
X0250358Y0040278D01*
X0250458Y0040240D01*
X0250558Y0040205D01*
X0250660Y0040174D01*
X0250763Y0040146D01*
X0250866Y0040123D01*
X0250971Y0040102D01*
X0251076Y0040086D01*
X0251181Y0040073D01*
X0251287Y0040063D01*
X0251394Y0040058D01*
X0251500Y0040056D01*
X0251606Y0040058D01*
X0251713Y0040063D01*
X0251819Y0040073D01*
X0251924Y0040086D01*
X0252029Y0040102D01*
X0252134Y0040123D01*
X0252237Y0040146D01*
X0252340Y0040174D01*
X0252442Y0040205D01*
X0252542Y0040240D01*
X0252642Y0040278D01*
X0252740Y0040319D01*
X0252836Y0040364D01*
X0251705Y0046843D02*
X0251749Y0046886D01*
X0251796Y0046927D01*
X0251845Y0046964D01*
X0251896Y0046999D01*
X0251950Y0047030D01*
X0252005Y0047058D01*
X0252062Y0047082D01*
X0252120Y0047103D01*
X0252180Y0047120D01*
X0252240Y0047134D01*
X0252301Y0047143D01*
X0252363Y0047149D01*
X0252425Y0047151D01*
X0252483Y0047149D01*
X0252541Y0047144D01*
X0252598Y0047135D01*
X0252655Y0047122D01*
X0252711Y0047106D01*
X0252766Y0047086D01*
X0252819Y0047063D01*
X0252871Y0047037D01*
X0252921Y0047007D01*
X0252969Y0046974D01*
X0253015Y0046939D01*
X0253058Y0046900D01*
X0253099Y0046859D01*
X0253138Y0046816D01*
X0253173Y0046770D01*
X0253206Y0046722D01*
X0253236Y0046672D01*
X0253262Y0046620D01*
X0253285Y0046567D01*
X0253305Y0046512D01*
X0253321Y0046456D01*
X0253334Y0046399D01*
X0253343Y0046342D01*
X0253348Y0046284D01*
X0253350Y0046226D01*
X0253348Y0046158D01*
X0253342Y0046090D01*
X0253333Y0046023D01*
X0253319Y0045957D01*
X0253302Y0045891D01*
X0253281Y0045826D01*
X0253256Y0045763D01*
X0253228Y0045701D01*
X0253196Y0045641D01*
X0253161Y0045583D01*
X0253123Y0045527D01*
X0253081Y0045474D01*
X0253037Y0045422D01*
X0252989Y0045374D01*
X0252939Y0045328D01*
X0252887Y0045285D01*
X0252832Y0045245D01*
X0252775Y0045208D01*
X0252716Y0045175D01*
X0252655Y0045145D01*
X0252592Y0045119D01*
X0252528Y0045096D01*
X0255650Y0045752D02*
X0259350Y0045752D01*
X0259350Y0046780D01*
X0259348Y0046843D01*
X0259342Y0046906D01*
X0259332Y0046969D01*
X0259319Y0047031D01*
X0259302Y0047092D01*
X0259281Y0047151D01*
X0259256Y0047210D01*
X0259228Y0047266D01*
X0259196Y0047321D01*
X0259161Y0047374D01*
X0259123Y0047424D01*
X0259082Y0047473D01*
X0259038Y0047518D01*
X0258991Y0047561D01*
X0258942Y0047600D01*
X0258890Y0047637D01*
X0258836Y0047670D01*
X0258780Y0047700D01*
X0258723Y0047727D01*
X0258664Y0047750D01*
X0258603Y0047769D01*
X0258542Y0047784D01*
X0258480Y0047796D01*
X0258417Y0047804D01*
X0258354Y0047808D01*
X0258290Y0047808D01*
X0258227Y0047804D01*
X0258164Y0047796D01*
X0258102Y0047784D01*
X0258041Y0047769D01*
X0257980Y0047750D01*
X0257921Y0047727D01*
X0257864Y0047700D01*
X0257808Y0047670D01*
X0257754Y0047637D01*
X0257702Y0047600D01*
X0257653Y0047561D01*
X0257606Y0047518D01*
X0257562Y0047473D01*
X0257521Y0047424D01*
X0257483Y0047374D01*
X0257448Y0047321D01*
X0257416Y0047266D01*
X0257388Y0047210D01*
X0257363Y0047151D01*
X0257342Y0047092D01*
X0257325Y0047031D01*
X0257312Y0046969D01*
X0257302Y0046906D01*
X0257296Y0046843D01*
X0257294Y0046780D01*
X0257294Y0045752D01*
X0257294Y0046986D02*
X0255650Y0047808D01*
X0255650Y0049175D02*
X0255650Y0049380D01*
X0255856Y0049380D01*
X0255856Y0049175D01*
X0255650Y0049175D01*
X0255650Y0052861D02*
X0259350Y0052861D01*
X0257911Y0053684D02*
X0255650Y0054917D01*
X0255650Y0056957D02*
X0255650Y0057882D01*
X0257500Y0057882D01*
X0257089Y0057882D02*
X0257089Y0056957D01*
X0257500Y0057882D02*
X0257548Y0057880D01*
X0257597Y0057874D01*
X0257644Y0057865D01*
X0257691Y0057852D01*
X0257736Y0057835D01*
X0257780Y0057815D01*
X0257822Y0057791D01*
X0257863Y0057764D01*
X0257901Y0057734D01*
X0257936Y0057701D01*
X0257969Y0057666D01*
X0257999Y0057628D01*
X0258026Y0057587D01*
X0258050Y0057545D01*
X0258070Y0057501D01*
X0258087Y0057456D01*
X0258100Y0057409D01*
X0258109Y0057362D01*
X0258115Y0057313D01*
X0258117Y0057265D01*
X0258117Y0056443D01*
X0257088Y0056957D02*
X0257086Y0056905D01*
X0257080Y0056852D01*
X0257071Y0056801D01*
X0257058Y0056750D01*
X0257041Y0056700D01*
X0257020Y0056652D01*
X0256996Y0056605D01*
X0256969Y0056560D01*
X0256938Y0056518D01*
X0256904Y0056477D01*
X0256868Y0056439D01*
X0256829Y0056404D01*
X0256787Y0056372D01*
X0256744Y0056343D01*
X0256698Y0056318D01*
X0256650Y0056295D01*
X0256601Y0056277D01*
X0256551Y0056261D01*
X0256500Y0056250D01*
X0256448Y0056242D01*
X0256395Y0056238D01*
X0256343Y0056238D01*
X0256290Y0056242D01*
X0256238Y0056250D01*
X0256187Y0056261D01*
X0256137Y0056277D01*
X0256088Y0056295D01*
X0256040Y0056318D01*
X0255994Y0056343D01*
X0255951Y0056372D01*
X0255909Y0056404D01*
X0255870Y0056439D01*
X0255834Y0056477D01*
X0255800Y0056518D01*
X0255769Y0056560D01*
X0255742Y0056605D01*
X0255718Y0056652D01*
X0255697Y0056700D01*
X0255680Y0056750D01*
X0255667Y0056801D01*
X0255658Y0056852D01*
X0255652Y0056905D01*
X0255650Y0056957D01*
X0255650Y0059478D02*
X0258117Y0059478D01*
X0259144Y0059580D02*
X0259144Y0059375D01*
X0259350Y0059375D01*
X0259350Y0059580D01*
X0259144Y0059580D01*
X0258117Y0061055D02*
X0255650Y0061055D01*
X0255650Y0062700D02*
X0257500Y0062700D01*
X0257548Y0062698D01*
X0257597Y0062692D01*
X0257644Y0062683D01*
X0257691Y0062670D01*
X0257736Y0062653D01*
X0257780Y0062633D01*
X0257822Y0062609D01*
X0257863Y0062582D01*
X0257901Y0062552D01*
X0257936Y0062519D01*
X0257969Y0062484D01*
X0257999Y0062446D01*
X0258026Y0062405D01*
X0258050Y0062363D01*
X0258070Y0062319D01*
X0258087Y0062274D01*
X0258100Y0062227D01*
X0258109Y0062180D01*
X0258115Y0062131D01*
X0258117Y0062083D01*
X0258117Y0061055D01*
X0258117Y0064415D02*
X0258117Y0065443D01*
X0258115Y0065491D01*
X0258109Y0065540D01*
X0258100Y0065587D01*
X0258087Y0065634D01*
X0258070Y0065679D01*
X0258050Y0065723D01*
X0258026Y0065765D01*
X0257999Y0065806D01*
X0257969Y0065844D01*
X0257936Y0065879D01*
X0257901Y0065912D01*
X0257863Y0065942D01*
X0257822Y0065969D01*
X0257780Y0065993D01*
X0257736Y0066013D01*
X0257691Y0066030D01*
X0257644Y0066043D01*
X0257597Y0066052D01*
X0257548Y0066058D01*
X0257500Y0066060D01*
X0255650Y0066060D01*
X0255650Y0064415D02*
X0259350Y0064415D01*
X0257294Y0067655D02*
X0256472Y0067655D01*
X0256416Y0067657D01*
X0256360Y0067663D01*
X0256305Y0067672D01*
X0256250Y0067685D01*
X0256197Y0067702D01*
X0256145Y0067723D01*
X0256094Y0067747D01*
X0256045Y0067775D01*
X0255998Y0067805D01*
X0255953Y0067839D01*
X0255911Y0067876D01*
X0255871Y0067916D01*
X0255834Y0067958D01*
X0255800Y0068003D01*
X0255770Y0068050D01*
X0255742Y0068099D01*
X0255718Y0068150D01*
X0255697Y0068202D01*
X0255680Y0068255D01*
X0255667Y0068310D01*
X0255658Y0068365D01*
X0255652Y0068421D01*
X0255650Y0068477D01*
X0255652Y0068533D01*
X0255658Y0068589D01*
X0255667Y0068644D01*
X0255680Y0068699D01*
X0255697Y0068752D01*
X0255718Y0068804D01*
X0255742Y0068855D01*
X0255770Y0068904D01*
X0255800Y0068951D01*
X0255834Y0068996D01*
X0255871Y0069038D01*
X0255911Y0069078D01*
X0255953Y0069115D01*
X0255998Y0069149D01*
X0256045Y0069179D01*
X0256094Y0069207D01*
X0256145Y0069231D01*
X0256197Y0069252D01*
X0256250Y0069269D01*
X0256305Y0069282D01*
X0256360Y0069291D01*
X0256416Y0069297D01*
X0256472Y0069299D01*
X0256472Y0069300D02*
X0257294Y0069300D01*
X0257294Y0069299D02*
X0257350Y0069297D01*
X0257406Y0069291D01*
X0257461Y0069282D01*
X0257516Y0069269D01*
X0257569Y0069252D01*
X0257621Y0069231D01*
X0257672Y0069207D01*
X0257721Y0069179D01*
X0257768Y0069149D01*
X0257813Y0069115D01*
X0257855Y0069078D01*
X0257895Y0069038D01*
X0257932Y0068996D01*
X0257966Y0068951D01*
X0257996Y0068904D01*
X0258024Y0068855D01*
X0258048Y0068804D01*
X0258069Y0068752D01*
X0258086Y0068699D01*
X0258099Y0068644D01*
X0258108Y0068589D01*
X0258114Y0068533D01*
X0258116Y0068477D01*
X0258114Y0068421D01*
X0258108Y0068365D01*
X0258099Y0068310D01*
X0258086Y0068255D01*
X0258069Y0068202D01*
X0258048Y0068150D01*
X0258024Y0068099D01*
X0257996Y0068050D01*
X0257966Y0068003D01*
X0257932Y0067958D01*
X0257895Y0067916D01*
X0257855Y0067876D01*
X0257813Y0067839D01*
X0257768Y0067805D01*
X0257721Y0067775D01*
X0257672Y0067747D01*
X0257621Y0067723D01*
X0257569Y0067702D01*
X0257516Y0067685D01*
X0257461Y0067672D01*
X0257406Y0067663D01*
X0257350Y0067657D01*
X0257294Y0067655D01*
X0258117Y0070563D02*
X0258117Y0071796D01*
X0258733Y0070974D02*
X0258781Y0070976D01*
X0258830Y0070982D01*
X0258877Y0070991D01*
X0258924Y0071004D01*
X0258969Y0071021D01*
X0259013Y0071041D01*
X0259055Y0071065D01*
X0259096Y0071092D01*
X0259134Y0071122D01*
X0259169Y0071155D01*
X0259202Y0071190D01*
X0259232Y0071228D01*
X0259259Y0071269D01*
X0259283Y0071311D01*
X0259303Y0071355D01*
X0259320Y0071400D01*
X0259333Y0071447D01*
X0259342Y0071494D01*
X0259348Y0071543D01*
X0259350Y0071591D01*
X0259350Y0071796D01*
X0258733Y0070974D02*
X0255650Y0070974D01*
X0256267Y0072815D02*
X0257294Y0072815D01*
X0256883Y0072815D02*
X0256883Y0074460D01*
X0257294Y0074460D01*
X0257294Y0074459D02*
X0257350Y0074457D01*
X0257406Y0074451D01*
X0257461Y0074442D01*
X0257516Y0074429D01*
X0257569Y0074412D01*
X0257621Y0074391D01*
X0257672Y0074367D01*
X0257721Y0074339D01*
X0257768Y0074309D01*
X0257813Y0074275D01*
X0257855Y0074238D01*
X0257895Y0074198D01*
X0257932Y0074156D01*
X0257966Y0074111D01*
X0257996Y0074064D01*
X0258024Y0074015D01*
X0258048Y0073964D01*
X0258069Y0073912D01*
X0258086Y0073859D01*
X0258099Y0073804D01*
X0258108Y0073749D01*
X0258114Y0073693D01*
X0258116Y0073637D01*
X0258114Y0073581D01*
X0258108Y0073525D01*
X0258099Y0073470D01*
X0258086Y0073415D01*
X0258069Y0073362D01*
X0258048Y0073310D01*
X0258024Y0073259D01*
X0257996Y0073210D01*
X0257966Y0073163D01*
X0257932Y0073118D01*
X0257895Y0073076D01*
X0257855Y0073036D01*
X0257813Y0072999D01*
X0257768Y0072965D01*
X0257721Y0072935D01*
X0257672Y0072907D01*
X0257621Y0072883D01*
X0257569Y0072862D01*
X0257516Y0072845D01*
X0257461Y0072832D01*
X0257406Y0072823D01*
X0257350Y0072817D01*
X0257294Y0072815D01*
X0256267Y0072815D02*
X0256219Y0072817D01*
X0256170Y0072823D01*
X0256123Y0072832D01*
X0256076Y0072845D01*
X0256031Y0072862D01*
X0255987Y0072882D01*
X0255945Y0072906D01*
X0255904Y0072933D01*
X0255866Y0072963D01*
X0255831Y0072996D01*
X0255798Y0073031D01*
X0255768Y0073069D01*
X0255741Y0073110D01*
X0255717Y0073152D01*
X0255697Y0073196D01*
X0255680Y0073241D01*
X0255667Y0073288D01*
X0255658Y0073335D01*
X0255652Y0073384D01*
X0255650Y0073432D01*
X0255650Y0074460D01*
X0255650Y0076075D02*
X0258117Y0076075D01*
X0258117Y0077309D01*
X0257706Y0077309D01*
X0252117Y0076914D02*
X0252117Y0075681D01*
X0249650Y0075681D01*
X0249650Y0074065D02*
X0249650Y0073037D01*
X0249652Y0072989D01*
X0249658Y0072940D01*
X0249667Y0072893D01*
X0249680Y0072846D01*
X0249697Y0072801D01*
X0249717Y0072757D01*
X0249741Y0072715D01*
X0249768Y0072674D01*
X0249798Y0072636D01*
X0249831Y0072601D01*
X0249866Y0072568D01*
X0249904Y0072538D01*
X0249945Y0072511D01*
X0249987Y0072487D01*
X0250031Y0072467D01*
X0250076Y0072450D01*
X0250123Y0072437D01*
X0250170Y0072428D01*
X0250219Y0072422D01*
X0250267Y0072420D01*
X0250267Y0072421D02*
X0251294Y0072421D01*
X0250883Y0072421D02*
X0250883Y0074065D01*
X0251294Y0074065D01*
X0251350Y0074063D01*
X0251406Y0074057D01*
X0251461Y0074048D01*
X0251516Y0074035D01*
X0251569Y0074018D01*
X0251621Y0073997D01*
X0251672Y0073973D01*
X0251721Y0073945D01*
X0251768Y0073915D01*
X0251813Y0073881D01*
X0251855Y0073844D01*
X0251895Y0073804D01*
X0251932Y0073762D01*
X0251966Y0073717D01*
X0251996Y0073670D01*
X0252024Y0073621D01*
X0252048Y0073570D01*
X0252069Y0073518D01*
X0252086Y0073465D01*
X0252099Y0073410D01*
X0252108Y0073355D01*
X0252114Y0073299D01*
X0252116Y0073243D01*
X0252114Y0073187D01*
X0252108Y0073131D01*
X0252099Y0073076D01*
X0252086Y0073021D01*
X0252069Y0072968D01*
X0252048Y0072916D01*
X0252024Y0072865D01*
X0251996Y0072816D01*
X0251966Y0072769D01*
X0251932Y0072724D01*
X0251895Y0072682D01*
X0251855Y0072642D01*
X0251813Y0072605D01*
X0251768Y0072571D01*
X0251721Y0072541D01*
X0251672Y0072513D01*
X0251621Y0072489D01*
X0251569Y0072468D01*
X0251516Y0072451D01*
X0251461Y0072438D01*
X0251406Y0072429D01*
X0251350Y0072423D01*
X0251294Y0072421D01*
X0251500Y0070963D02*
X0250267Y0070963D01*
X0250267Y0070964D02*
X0250219Y0070962D01*
X0250170Y0070956D01*
X0250123Y0070947D01*
X0250076Y0070934D01*
X0250031Y0070917D01*
X0249987Y0070897D01*
X0249945Y0070873D01*
X0249904Y0070846D01*
X0249866Y0070816D01*
X0249831Y0070783D01*
X0249798Y0070748D01*
X0249768Y0070710D01*
X0249741Y0070669D01*
X0249717Y0070627D01*
X0249697Y0070583D01*
X0249680Y0070538D01*
X0249667Y0070491D01*
X0249658Y0070444D01*
X0249652Y0070395D01*
X0249650Y0070347D01*
X0249650Y0069319D01*
X0253350Y0069319D01*
X0252117Y0069319D02*
X0252117Y0070347D01*
X0252115Y0070395D01*
X0252109Y0070444D01*
X0252100Y0070491D01*
X0252087Y0070538D01*
X0252070Y0070583D01*
X0252050Y0070627D01*
X0252026Y0070669D01*
X0251999Y0070710D01*
X0251969Y0070748D01*
X0251936Y0070783D01*
X0251901Y0070816D01*
X0251863Y0070846D01*
X0251822Y0070873D01*
X0251780Y0070897D01*
X0251736Y0070917D01*
X0251691Y0070934D01*
X0251644Y0070947D01*
X0251597Y0070956D01*
X0251548Y0070962D01*
X0251500Y0070964D01*
X0251500Y0067516D02*
X0249650Y0067516D01*
X0249650Y0066283D02*
X0252117Y0066283D01*
X0252117Y0066900D02*
X0252117Y0065050D01*
X0249650Y0065050D01*
X0249650Y0063385D02*
X0249650Y0062358D01*
X0249652Y0062310D01*
X0249658Y0062261D01*
X0249667Y0062214D01*
X0249680Y0062167D01*
X0249697Y0062122D01*
X0249717Y0062078D01*
X0249741Y0062036D01*
X0249768Y0061995D01*
X0249798Y0061957D01*
X0249831Y0061922D01*
X0249866Y0061889D01*
X0249904Y0061859D01*
X0249945Y0061832D01*
X0249987Y0061808D01*
X0250031Y0061788D01*
X0250076Y0061771D01*
X0250123Y0061758D01*
X0250170Y0061749D01*
X0250219Y0061743D01*
X0250267Y0061741D01*
X0251294Y0061741D01*
X0250883Y0061741D02*
X0250883Y0063385D01*
X0251294Y0063385D01*
X0251350Y0063383D01*
X0251406Y0063377D01*
X0251461Y0063368D01*
X0251516Y0063355D01*
X0251569Y0063338D01*
X0251621Y0063317D01*
X0251672Y0063293D01*
X0251721Y0063265D01*
X0251768Y0063235D01*
X0251813Y0063201D01*
X0251855Y0063164D01*
X0251895Y0063124D01*
X0251932Y0063082D01*
X0251966Y0063037D01*
X0251996Y0062990D01*
X0252024Y0062941D01*
X0252048Y0062890D01*
X0252069Y0062838D01*
X0252086Y0062785D01*
X0252099Y0062730D01*
X0252108Y0062675D01*
X0252114Y0062619D01*
X0252116Y0062563D01*
X0252114Y0062507D01*
X0252108Y0062451D01*
X0252099Y0062396D01*
X0252086Y0062341D01*
X0252069Y0062288D01*
X0252048Y0062236D01*
X0252024Y0062185D01*
X0251996Y0062136D01*
X0251966Y0062089D01*
X0251932Y0062044D01*
X0251895Y0062002D01*
X0251855Y0061962D01*
X0251813Y0061925D01*
X0251768Y0061891D01*
X0251721Y0061861D01*
X0251672Y0061833D01*
X0251621Y0061809D01*
X0251569Y0061788D01*
X0251516Y0061771D01*
X0251461Y0061758D01*
X0251406Y0061749D01*
X0251350Y0061743D01*
X0251294Y0061741D01*
X0252117Y0060424D02*
X0252117Y0059602D01*
X0252115Y0059554D01*
X0252109Y0059505D01*
X0252100Y0059458D01*
X0252087Y0059411D01*
X0252070Y0059366D01*
X0252050Y0059322D01*
X0252026Y0059280D01*
X0251999Y0059239D01*
X0251969Y0059201D01*
X0251936Y0059166D01*
X0251901Y0059133D01*
X0251863Y0059103D01*
X0251822Y0059076D01*
X0251780Y0059052D01*
X0251736Y0059032D01*
X0251691Y0059015D01*
X0251644Y0059002D01*
X0251597Y0058993D01*
X0251548Y0058987D01*
X0251500Y0058985D01*
X0250267Y0058985D01*
X0250219Y0058987D01*
X0250170Y0058993D01*
X0250123Y0059002D01*
X0250076Y0059015D01*
X0250031Y0059032D01*
X0249987Y0059052D01*
X0249945Y0059076D01*
X0249904Y0059103D01*
X0249866Y0059133D01*
X0249831Y0059166D01*
X0249798Y0059201D01*
X0249768Y0059239D01*
X0249741Y0059280D01*
X0249717Y0059322D01*
X0249697Y0059366D01*
X0249680Y0059411D01*
X0249667Y0059458D01*
X0249658Y0059505D01*
X0249652Y0059554D01*
X0249650Y0059602D01*
X0249650Y0060424D01*
X0249650Y0057505D02*
X0249650Y0056478D01*
X0249652Y0056430D01*
X0249658Y0056381D01*
X0249667Y0056334D01*
X0249680Y0056287D01*
X0249697Y0056242D01*
X0249717Y0056198D01*
X0249741Y0056156D01*
X0249768Y0056115D01*
X0249798Y0056077D01*
X0249831Y0056042D01*
X0249866Y0056009D01*
X0249904Y0055979D01*
X0249945Y0055952D01*
X0249987Y0055928D01*
X0250031Y0055908D01*
X0250076Y0055891D01*
X0250123Y0055878D01*
X0250170Y0055869D01*
X0250219Y0055863D01*
X0250267Y0055861D01*
X0251294Y0055861D01*
X0250883Y0055861D02*
X0250883Y0057505D01*
X0251294Y0057505D01*
X0251350Y0057503D01*
X0251406Y0057497D01*
X0251461Y0057488D01*
X0251516Y0057475D01*
X0251569Y0057458D01*
X0251621Y0057437D01*
X0251672Y0057413D01*
X0251721Y0057385D01*
X0251768Y0057355D01*
X0251813Y0057321D01*
X0251855Y0057284D01*
X0251895Y0057244D01*
X0251932Y0057202D01*
X0251966Y0057157D01*
X0251996Y0057110D01*
X0252024Y0057061D01*
X0252048Y0057010D01*
X0252069Y0056958D01*
X0252086Y0056905D01*
X0252099Y0056850D01*
X0252108Y0056795D01*
X0252114Y0056739D01*
X0252116Y0056683D01*
X0252114Y0056627D01*
X0252108Y0056571D01*
X0252099Y0056516D01*
X0252086Y0056461D01*
X0252069Y0056408D01*
X0252048Y0056356D01*
X0252024Y0056305D01*
X0251996Y0056256D01*
X0251966Y0056209D01*
X0251932Y0056164D01*
X0251895Y0056122D01*
X0251855Y0056082D01*
X0251813Y0056045D01*
X0251768Y0056011D01*
X0251721Y0055981D01*
X0251672Y0055953D01*
X0251621Y0055929D01*
X0251569Y0055908D01*
X0251516Y0055891D01*
X0251461Y0055878D01*
X0251406Y0055869D01*
X0251350Y0055863D01*
X0251294Y0055861D01*
X0250678Y0054231D02*
X0252322Y0054231D01*
X0252384Y0054229D01*
X0252446Y0054224D01*
X0252507Y0054214D01*
X0252568Y0054201D01*
X0252628Y0054184D01*
X0252687Y0054164D01*
X0252744Y0054140D01*
X0252800Y0054113D01*
X0252854Y0054083D01*
X0252906Y0054049D01*
X0252956Y0054012D01*
X0253004Y0053972D01*
X0253049Y0053930D01*
X0253091Y0053885D01*
X0253131Y0053837D01*
X0253168Y0053787D01*
X0253202Y0053735D01*
X0253232Y0053681D01*
X0253259Y0053625D01*
X0253283Y0053568D01*
X0253303Y0053509D01*
X0253320Y0053449D01*
X0253333Y0053388D01*
X0253343Y0053327D01*
X0253348Y0053265D01*
X0253350Y0053203D01*
X0253350Y0052175D01*
X0249650Y0052175D01*
X0249650Y0053203D01*
X0249652Y0053265D01*
X0249657Y0053327D01*
X0249667Y0053388D01*
X0249680Y0053449D01*
X0249697Y0053509D01*
X0249717Y0053568D01*
X0249741Y0053625D01*
X0249768Y0053681D01*
X0249798Y0053735D01*
X0249832Y0053787D01*
X0249869Y0053837D01*
X0249909Y0053885D01*
X0249951Y0053930D01*
X0249996Y0053972D01*
X0250044Y0054012D01*
X0250094Y0054049D01*
X0250146Y0054083D01*
X0250200Y0054113D01*
X0250256Y0054140D01*
X0250313Y0054164D01*
X0250372Y0054184D01*
X0250432Y0054201D01*
X0250493Y0054214D01*
X0250554Y0054224D01*
X0250616Y0054229D01*
X0250678Y0054231D01*
X0257089Y0052861D02*
X0259350Y0054917D01*
X0252117Y0066900D02*
X0252115Y0066948D01*
X0252109Y0066997D01*
X0252100Y0067044D01*
X0252087Y0067091D01*
X0252070Y0067136D01*
X0252050Y0067180D01*
X0252026Y0067222D01*
X0251999Y0067263D01*
X0251969Y0067301D01*
X0251936Y0067336D01*
X0251901Y0067369D01*
X0251863Y0067399D01*
X0251822Y0067426D01*
X0251780Y0067450D01*
X0251736Y0067470D01*
X0251691Y0067487D01*
X0251644Y0067500D01*
X0251597Y0067509D01*
X0251548Y0067515D01*
X0251500Y0067517D01*
X0251706Y0076914D02*
X0252117Y0076914D01*
X0252528Y0080015D02*
X0253350Y0081043D01*
X0249650Y0081043D01*
X0249650Y0080015D02*
X0249650Y0082071D01*
X0249650Y0083615D02*
X0249650Y0085671D01*
X0249650Y0087047D02*
X0249856Y0087047D01*
X0249856Y0087253D01*
X0249650Y0087253D01*
X0248828Y0086944D01*
X0249650Y0087047D02*
X0249650Y0087253D01*
X0251706Y0085362D02*
X0249650Y0083615D01*
X0252528Y0083616D02*
X0252592Y0083639D01*
X0252655Y0083665D01*
X0252716Y0083695D01*
X0252775Y0083728D01*
X0252832Y0083765D01*
X0252887Y0083805D01*
X0252939Y0083848D01*
X0252989Y0083894D01*
X0253037Y0083942D01*
X0253081Y0083994D01*
X0253123Y0084047D01*
X0253161Y0084103D01*
X0253196Y0084161D01*
X0253228Y0084221D01*
X0253256Y0084283D01*
X0253281Y0084346D01*
X0253302Y0084411D01*
X0253319Y0084477D01*
X0253333Y0084543D01*
X0253342Y0084610D01*
X0253348Y0084678D01*
X0253350Y0084746D01*
X0253348Y0084804D01*
X0253343Y0084862D01*
X0253334Y0084919D01*
X0253321Y0084976D01*
X0253305Y0085032D01*
X0253285Y0085087D01*
X0253262Y0085140D01*
X0253236Y0085192D01*
X0253206Y0085242D01*
X0253173Y0085290D01*
X0253138Y0085336D01*
X0253099Y0085379D01*
X0253058Y0085420D01*
X0253015Y0085459D01*
X0252969Y0085494D01*
X0252921Y0085527D01*
X0252871Y0085557D01*
X0252819Y0085583D01*
X0252766Y0085606D01*
X0252711Y0085626D01*
X0252655Y0085642D01*
X0252598Y0085655D01*
X0252541Y0085664D01*
X0252483Y0085669D01*
X0252425Y0085671D01*
X0252363Y0085669D01*
X0252301Y0085663D01*
X0252240Y0085654D01*
X0252180Y0085640D01*
X0252120Y0085623D01*
X0252062Y0085602D01*
X0252005Y0085578D01*
X0251950Y0085550D01*
X0251896Y0085519D01*
X0251845Y0085484D01*
X0251796Y0085447D01*
X0251749Y0085406D01*
X0251705Y0085363D01*
X0249650Y0090575D02*
X0249650Y0092631D01*
X0250164Y0095923D02*
X0250260Y0095968D01*
X0250358Y0096009D01*
X0250458Y0096047D01*
X0250558Y0096082D01*
X0250660Y0096113D01*
X0250763Y0096141D01*
X0250866Y0096164D01*
X0250971Y0096185D01*
X0251076Y0096201D01*
X0251181Y0096214D01*
X0251287Y0096224D01*
X0251394Y0096229D01*
X0251500Y0096231D01*
X0251500Y0094175D02*
X0251606Y0094177D01*
X0251713Y0094182D01*
X0251819Y0094192D01*
X0251924Y0094205D01*
X0252029Y0094221D01*
X0252134Y0094242D01*
X0252237Y0094265D01*
X0252340Y0094293D01*
X0252442Y0094324D01*
X0252542Y0094359D01*
X0252642Y0094397D01*
X0252740Y0094438D01*
X0252836Y0094483D01*
X0253350Y0095203D02*
X0253348Y0095255D01*
X0253343Y0095308D01*
X0253334Y0095359D01*
X0253321Y0095410D01*
X0253305Y0095460D01*
X0253286Y0095509D01*
X0253263Y0095556D01*
X0253237Y0095602D01*
X0253208Y0095645D01*
X0253176Y0095687D01*
X0253142Y0095726D01*
X0253104Y0095763D01*
X0253064Y0095797D01*
X0253022Y0095829D01*
X0252978Y0095857D01*
X0252932Y0095882D01*
X0252885Y0095904D01*
X0252836Y0095923D01*
X0252528Y0096025D02*
X0250472Y0094381D01*
X0249650Y0095203D02*
X0249652Y0095255D01*
X0249657Y0095308D01*
X0249666Y0095359D01*
X0249679Y0095410D01*
X0249695Y0095460D01*
X0249714Y0095509D01*
X0249737Y0095556D01*
X0249763Y0095602D01*
X0249792Y0095645D01*
X0249824Y0095687D01*
X0249858Y0095726D01*
X0249896Y0095763D01*
X0249936Y0095797D01*
X0249978Y0095829D01*
X0250022Y0095857D01*
X0250068Y0095882D01*
X0250115Y0095904D01*
X0250164Y0095923D01*
X0249650Y0095203D02*
X0249652Y0095151D01*
X0249657Y0095098D01*
X0249666Y0095047D01*
X0249679Y0094996D01*
X0249695Y0094946D01*
X0249714Y0094897D01*
X0249737Y0094850D01*
X0249763Y0094804D01*
X0249792Y0094761D01*
X0249824Y0094719D01*
X0249858Y0094680D01*
X0249896Y0094643D01*
X0249936Y0094609D01*
X0249978Y0094577D01*
X0250022Y0094549D01*
X0250068Y0094524D01*
X0250115Y0094502D01*
X0250164Y0094483D01*
X0251500Y0096231D02*
X0251606Y0096229D01*
X0251713Y0096224D01*
X0251819Y0096214D01*
X0251924Y0096201D01*
X0252029Y0096185D01*
X0252134Y0096164D01*
X0252237Y0096141D01*
X0252340Y0096113D01*
X0252442Y0096082D01*
X0252542Y0096047D01*
X0252642Y0096009D01*
X0252740Y0095968D01*
X0252836Y0095923D01*
X0253350Y0095203D02*
X0253348Y0095151D01*
X0253343Y0095098D01*
X0253334Y0095047D01*
X0253321Y0094996D01*
X0253305Y0094946D01*
X0253286Y0094897D01*
X0253263Y0094850D01*
X0253237Y0094804D01*
X0253208Y0094761D01*
X0253176Y0094719D01*
X0253142Y0094680D01*
X0253104Y0094643D01*
X0253064Y0094609D01*
X0253022Y0094577D01*
X0252978Y0094549D01*
X0252932Y0094524D01*
X0252885Y0094502D01*
X0252836Y0094483D01*
X0251706Y0092322D02*
X0249650Y0090575D01*
X0252528Y0090576D02*
X0252592Y0090599D01*
X0252655Y0090625D01*
X0252716Y0090655D01*
X0252775Y0090688D01*
X0252832Y0090725D01*
X0252887Y0090765D01*
X0252939Y0090808D01*
X0252989Y0090854D01*
X0253037Y0090902D01*
X0253081Y0090954D01*
X0253123Y0091007D01*
X0253161Y0091063D01*
X0253196Y0091121D01*
X0253228Y0091181D01*
X0253256Y0091243D01*
X0253281Y0091306D01*
X0253302Y0091371D01*
X0253319Y0091437D01*
X0253333Y0091503D01*
X0253342Y0091570D01*
X0253348Y0091638D01*
X0253350Y0091706D01*
X0253348Y0091764D01*
X0253343Y0091822D01*
X0253334Y0091879D01*
X0253321Y0091936D01*
X0253305Y0091992D01*
X0253285Y0092047D01*
X0253262Y0092100D01*
X0253236Y0092152D01*
X0253206Y0092202D01*
X0253173Y0092250D01*
X0253138Y0092296D01*
X0253099Y0092339D01*
X0253058Y0092380D01*
X0253015Y0092419D01*
X0252969Y0092454D01*
X0252921Y0092487D01*
X0252871Y0092517D01*
X0252819Y0092543D01*
X0252766Y0092566D01*
X0252711Y0092586D01*
X0252655Y0092602D01*
X0252598Y0092615D01*
X0252541Y0092624D01*
X0252483Y0092629D01*
X0252425Y0092631D01*
X0252363Y0092629D01*
X0252301Y0092623D01*
X0252240Y0092614D01*
X0252180Y0092600D01*
X0252120Y0092583D01*
X0252062Y0092562D01*
X0252005Y0092538D01*
X0251950Y0092510D01*
X0251896Y0092479D01*
X0251845Y0092444D01*
X0251796Y0092407D01*
X0251749Y0092366D01*
X0251705Y0092323D01*
X0251500Y0094175D02*
X0251394Y0094177D01*
X0251287Y0094182D01*
X0251181Y0094192D01*
X0251076Y0094205D01*
X0250971Y0094221D01*
X0250866Y0094242D01*
X0250763Y0094265D01*
X0250660Y0094293D01*
X0250558Y0094324D01*
X0250458Y0094359D01*
X0250358Y0094397D01*
X0250260Y0094438D01*
X0250164Y0094483D01*
X0249650Y0097775D02*
X0249650Y0099831D01*
X0249650Y0098803D02*
X0253350Y0098803D01*
X0252528Y0097775D01*
X0252939Y0101375D02*
X0253350Y0101375D01*
X0253350Y0103431D01*
X0249650Y0102403D01*
X0255650Y0027558D02*
X0258117Y0027558D01*
X0259144Y0027661D02*
X0259144Y0027455D01*
X0259350Y0027455D01*
X0259350Y0027661D01*
X0259144Y0027661D01*
X0255649Y0025586D02*
X0255653Y0025471D01*
X0255660Y0025356D01*
X0255671Y0025241D01*
X0255686Y0025126D01*
X0255705Y0025012D01*
X0255728Y0024899D01*
X0255754Y0024787D01*
X0255784Y0024675D01*
X0255818Y0024565D01*
X0255855Y0024456D01*
X0258117Y0024969D02*
X0258113Y0025065D01*
X0258106Y0025160D01*
X0258095Y0025255D01*
X0258080Y0025349D01*
X0258061Y0025442D01*
X0258039Y0025535D01*
X0258012Y0025627D01*
X0257982Y0025717D01*
X0257949Y0025806D01*
X0257911Y0025894D01*
X0258117Y0024970D02*
X0258116Y0024925D01*
X0258111Y0024880D01*
X0258102Y0024836D01*
X0258090Y0024793D01*
X0258074Y0024751D01*
X0258054Y0024711D01*
X0258031Y0024672D01*
X0258006Y0024636D01*
X0257977Y0024602D01*
X0257945Y0024570D01*
X0257911Y0024541D01*
X0257874Y0024515D01*
X0257836Y0024492D01*
X0257795Y0024473D01*
X0257753Y0024457D01*
X0257710Y0024444D01*
X0257666Y0024435D01*
X0257622Y0024430D01*
X0257577Y0024429D01*
X0257532Y0024432D01*
X0257488Y0024438D01*
X0257444Y0024448D01*
X0257402Y0024461D01*
X0257360Y0024478D01*
X0257320Y0024499D01*
X0257282Y0024523D01*
X0257247Y0024549D01*
X0257213Y0024579D01*
X0257182Y0024612D01*
X0257154Y0024647D01*
X0257129Y0024684D01*
X0257108Y0024723D01*
X0257089Y0024764D01*
X0256678Y0025792D01*
X0256659Y0025833D01*
X0256638Y0025872D01*
X0256613Y0025909D01*
X0256585Y0025944D01*
X0256554Y0025977D01*
X0256520Y0026007D01*
X0256485Y0026033D01*
X0256447Y0026057D01*
X0256407Y0026078D01*
X0256365Y0026095D01*
X0256323Y0026108D01*
X0256279Y0026118D01*
X0256235Y0026124D01*
X0256190Y0026127D01*
X0256145Y0026126D01*
X0256101Y0026121D01*
X0256057Y0026112D01*
X0256014Y0026099D01*
X0255972Y0026083D01*
X0255931Y0026064D01*
X0255893Y0026041D01*
X0255856Y0026015D01*
X0255822Y0025986D01*
X0255790Y0025954D01*
X0255761Y0025920D01*
X0255736Y0025884D01*
X0255713Y0025845D01*
X0255693Y0025805D01*
X0255677Y0025763D01*
X0255665Y0025720D01*
X0255656Y0025676D01*
X0255651Y0025631D01*
X0255650Y0025586D01*
X0255650Y0022980D02*
X0255650Y0021952D01*
X0255652Y0021904D01*
X0255658Y0021855D01*
X0255667Y0021808D01*
X0255680Y0021761D01*
X0255697Y0021716D01*
X0255717Y0021672D01*
X0255741Y0021630D01*
X0255768Y0021589D01*
X0255798Y0021551D01*
X0255831Y0021516D01*
X0255866Y0021483D01*
X0255904Y0021453D01*
X0255945Y0021426D01*
X0255987Y0021402D01*
X0256031Y0021382D01*
X0256076Y0021365D01*
X0256123Y0021352D01*
X0256170Y0021343D01*
X0256219Y0021337D01*
X0256267Y0021335D01*
X0256267Y0021336D02*
X0257294Y0021336D01*
X0256883Y0021336D02*
X0256883Y0022980D01*
X0257294Y0022980D01*
X0257350Y0022978D01*
X0257406Y0022972D01*
X0257461Y0022963D01*
X0257516Y0022950D01*
X0257569Y0022933D01*
X0257621Y0022912D01*
X0257672Y0022888D01*
X0257721Y0022860D01*
X0257768Y0022830D01*
X0257813Y0022796D01*
X0257855Y0022759D01*
X0257895Y0022719D01*
X0257932Y0022677D01*
X0257966Y0022632D01*
X0257996Y0022585D01*
X0258024Y0022536D01*
X0258048Y0022485D01*
X0258069Y0022433D01*
X0258086Y0022380D01*
X0258099Y0022325D01*
X0258108Y0022270D01*
X0258114Y0022214D01*
X0258116Y0022158D01*
X0258114Y0022102D01*
X0258108Y0022046D01*
X0258099Y0021991D01*
X0258086Y0021936D01*
X0258069Y0021883D01*
X0258048Y0021831D01*
X0258024Y0021780D01*
X0257996Y0021731D01*
X0257966Y0021684D01*
X0257932Y0021639D01*
X0257895Y0021597D01*
X0257855Y0021557D01*
X0257813Y0021520D01*
X0257768Y0021486D01*
X0257721Y0021456D01*
X0257672Y0021428D01*
X0257621Y0021404D01*
X0257569Y0021383D01*
X0257516Y0021366D01*
X0257461Y0021353D01*
X0257406Y0021344D01*
X0257350Y0021338D01*
X0257294Y0021336D01*
X0256678Y0019706D02*
X0258322Y0019706D01*
X0258384Y0019704D01*
X0258446Y0019699D01*
X0258507Y0019689D01*
X0258568Y0019676D01*
X0258628Y0019659D01*
X0258687Y0019639D01*
X0258744Y0019615D01*
X0258800Y0019588D01*
X0258854Y0019558D01*
X0258906Y0019524D01*
X0258956Y0019487D01*
X0259004Y0019447D01*
X0259049Y0019405D01*
X0259091Y0019360D01*
X0259131Y0019312D01*
X0259168Y0019262D01*
X0259202Y0019210D01*
X0259232Y0019156D01*
X0259259Y0019100D01*
X0259283Y0019043D01*
X0259303Y0018984D01*
X0259320Y0018924D01*
X0259333Y0018863D01*
X0259343Y0018802D01*
X0259348Y0018740D01*
X0259350Y0018678D01*
X0259350Y0017650D01*
X0255650Y0017650D01*
X0255650Y0018678D01*
X0255652Y0018740D01*
X0255657Y0018802D01*
X0255667Y0018863D01*
X0255680Y0018924D01*
X0255697Y0018984D01*
X0255717Y0019043D01*
X0255741Y0019100D01*
X0255768Y0019156D01*
X0255798Y0019210D01*
X0255832Y0019262D01*
X0255869Y0019312D01*
X0255909Y0019360D01*
X0255951Y0019405D01*
X0255996Y0019447D01*
X0256044Y0019487D01*
X0256094Y0019524D01*
X0256146Y0019558D01*
X0256200Y0019588D01*
X0256256Y0019615D01*
X0256313Y0019639D01*
X0256372Y0019659D01*
X0256432Y0019676D01*
X0256493Y0019689D01*
X0256554Y0019699D01*
X0256616Y0019704D01*
X0256678Y0019706D01*
X0253350Y0017650D02*
X0249650Y0018883D01*
D13*
X0196319Y0105000D02*
X0196319Y0110000D01*
X0147100Y0110511D02*
X0144544Y0110511D01*
X0144544Y0110512D02*
X0144455Y0110514D01*
X0144366Y0110520D01*
X0144277Y0110529D01*
X0144189Y0110543D01*
X0144102Y0110560D01*
X0144015Y0110582D01*
X0143929Y0110607D01*
X0143845Y0110635D01*
X0143762Y0110668D01*
X0143680Y0110704D01*
X0143600Y0110743D01*
X0143522Y0110786D01*
X0143446Y0110832D01*
X0143372Y0110882D01*
X0143300Y0110934D01*
X0143230Y0110990D01*
X0143163Y0111049D01*
X0143099Y0111111D01*
X0143037Y0111175D01*
X0142978Y0111242D01*
X0142922Y0111312D01*
X0142870Y0111384D01*
X0142820Y0111458D01*
X0142774Y0111534D01*
X0142731Y0111612D01*
X0142692Y0111692D01*
X0142656Y0111774D01*
X0142623Y0111857D01*
X0142595Y0111941D01*
X0142570Y0112027D01*
X0142548Y0112114D01*
X0142531Y0112201D01*
X0142517Y0112289D01*
X0142508Y0112378D01*
X0142502Y0112467D01*
X0142500Y0112556D01*
X0142502Y0112645D01*
X0142508Y0112734D01*
X0142517Y0112823D01*
X0142531Y0112911D01*
X0142548Y0112998D01*
X0142570Y0113085D01*
X0142595Y0113171D01*
X0142623Y0113255D01*
X0142656Y0113338D01*
X0142692Y0113420D01*
X0142731Y0113500D01*
X0142774Y0113578D01*
X0142820Y0113654D01*
X0142870Y0113728D01*
X0142922Y0113800D01*
X0142978Y0113870D01*
X0143037Y0113937D01*
X0143099Y0114001D01*
X0143163Y0114063D01*
X0143230Y0114122D01*
X0143300Y0114178D01*
X0143372Y0114230D01*
X0143446Y0114280D01*
X0143522Y0114326D01*
X0143600Y0114369D01*
X0143680Y0114408D01*
X0143762Y0114444D01*
X0143845Y0114477D01*
X0143929Y0114505D01*
X0144015Y0114530D01*
X0144102Y0114552D01*
X0144189Y0114569D01*
X0144277Y0114583D01*
X0144366Y0114592D01*
X0144455Y0114598D01*
X0144544Y0114600D01*
X0147100Y0114600D01*
X0147100Y0105400D01*
X0144544Y0105400D01*
X0144444Y0105402D01*
X0144343Y0105408D01*
X0144244Y0105418D01*
X0144144Y0105431D01*
X0144045Y0105449D01*
X0143947Y0105471D01*
X0143850Y0105496D01*
X0143754Y0105525D01*
X0143659Y0105558D01*
X0143566Y0105595D01*
X0143474Y0105635D01*
X0143384Y0105679D01*
X0143295Y0105726D01*
X0143208Y0105777D01*
X0143124Y0105831D01*
X0143042Y0105888D01*
X0142962Y0105949D01*
X0142884Y0106012D01*
X0142809Y0106079D01*
X0142737Y0106149D01*
X0142667Y0106221D01*
X0142600Y0106296D01*
X0142537Y0106374D01*
X0142476Y0106454D01*
X0142419Y0106536D01*
X0142365Y0106620D01*
X0142314Y0106707D01*
X0142267Y0106796D01*
X0142223Y0106886D01*
X0142183Y0106978D01*
X0142146Y0107071D01*
X0142113Y0107166D01*
X0142084Y0107262D01*
X0142059Y0107359D01*
X0142037Y0107457D01*
X0142019Y0107556D01*
X0142006Y0107656D01*
X0141996Y0107755D01*
X0141990Y0107856D01*
X0141988Y0107956D01*
X0141990Y0108056D01*
X0141996Y0108157D01*
X0142006Y0108256D01*
X0142019Y0108356D01*
X0142037Y0108455D01*
X0142059Y0108553D01*
X0142084Y0108650D01*
X0142113Y0108746D01*
X0142146Y0108841D01*
X0142183Y0108934D01*
X0142223Y0109026D01*
X0142267Y0109116D01*
X0142314Y0109205D01*
X0142365Y0109292D01*
X0142419Y0109376D01*
X0142476Y0109458D01*
X0142537Y0109538D01*
X0142600Y0109616D01*
X0142667Y0109691D01*
X0142737Y0109763D01*
X0142809Y0109833D01*
X0142884Y0109900D01*
X0142962Y0109963D01*
X0143042Y0110024D01*
X0143124Y0110081D01*
X0143208Y0110135D01*
X0143295Y0110186D01*
X0143384Y0110233D01*
X0143474Y0110277D01*
X0143566Y0110317D01*
X0143659Y0110354D01*
X0143754Y0110387D01*
X0143850Y0110416D01*
X0143947Y0110441D01*
X0144045Y0110463D01*
X0144144Y0110481D01*
X0144244Y0110494D01*
X0144343Y0110504D01*
X0144444Y0110510D01*
X0144544Y0110512D01*
X0138950Y0111533D02*
X0135883Y0111533D01*
X0135883Y0110511D01*
X0133515Y0110000D02*
X0133515Y0106933D01*
X0133513Y0106858D01*
X0133508Y0106783D01*
X0133498Y0106708D01*
X0133486Y0106634D01*
X0133469Y0106561D01*
X0133449Y0106488D01*
X0133425Y0106417D01*
X0133398Y0106346D01*
X0133368Y0106278D01*
X0133334Y0106210D01*
X0133297Y0106145D01*
X0133257Y0106081D01*
X0133213Y0106020D01*
X0133167Y0105960D01*
X0133118Y0105904D01*
X0133066Y0105849D01*
X0133012Y0105797D01*
X0132955Y0105748D01*
X0132895Y0105702D01*
X0132834Y0105658D01*
X0132770Y0105618D01*
X0132705Y0105581D01*
X0132637Y0105547D01*
X0132569Y0105517D01*
X0132498Y0105490D01*
X0132427Y0105466D01*
X0132354Y0105446D01*
X0132281Y0105429D01*
X0132207Y0105417D01*
X0132132Y0105407D01*
X0132057Y0105402D01*
X0131982Y0105400D01*
X0129426Y0105400D01*
X0129426Y0114600D01*
X0129426Y0111533D02*
X0131982Y0111533D01*
X0132057Y0111531D01*
X0132132Y0111526D01*
X0132207Y0111516D01*
X0132281Y0111504D01*
X0132354Y0111487D01*
X0132427Y0111467D01*
X0132498Y0111443D01*
X0132569Y0111416D01*
X0132637Y0111386D01*
X0132705Y0111352D01*
X0132770Y0111315D01*
X0132834Y0111275D01*
X0132895Y0111231D01*
X0132955Y0111185D01*
X0133011Y0111136D01*
X0133066Y0111084D01*
X0133118Y0111029D01*
X0133167Y0110973D01*
X0133213Y0110913D01*
X0133257Y0110852D01*
X0133297Y0110788D01*
X0133334Y0110723D01*
X0133368Y0110655D01*
X0133398Y0110587D01*
X0133425Y0110516D01*
X0133449Y0110445D01*
X0133469Y0110372D01*
X0133486Y0110299D01*
X0133498Y0110225D01*
X0133508Y0110150D01*
X0133513Y0110075D01*
X0133515Y0110000D01*
X0138950Y0111533D02*
X0138950Y0105400D01*
X0125952Y0106167D02*
X0125441Y0106167D01*
X0125441Y0106678D01*
X0125952Y0106678D01*
X0125952Y0106167D01*
X0125952Y0110256D02*
X0125441Y0110256D01*
X0125441Y0110767D01*
X0125952Y0110767D01*
X0125952Y0110256D01*
D14*
X0072500Y0108750D03*
D15*
X0017500Y0005000D02*
X0017500Y0215000D01*
X0271500Y0215000D01*
X0277500Y0209000D01*
X0277500Y0164000D01*
X0287500Y0154000D01*
X0287500Y0025000D01*
X0277500Y0015000D01*
X0277500Y0005000D01*
X0017500Y0005000D01*
X0065429Y0015000D02*
X0065431Y0015174D01*
X0065438Y0015347D01*
X0065448Y0015520D01*
X0065463Y0015693D01*
X0065482Y0015866D01*
X0065506Y0016038D01*
X0065533Y0016209D01*
X0065565Y0016379D01*
X0065601Y0016549D01*
X0065641Y0016718D01*
X0065685Y0016886D01*
X0065733Y0017053D01*
X0065786Y0017218D01*
X0065842Y0017382D01*
X0065903Y0017545D01*
X0065967Y0017706D01*
X0066036Y0017865D01*
X0066108Y0018023D01*
X0066184Y0018179D01*
X0066264Y0018333D01*
X0066348Y0018485D01*
X0066435Y0018635D01*
X0066526Y0018783D01*
X0066621Y0018928D01*
X0066719Y0019072D01*
X0066821Y0019212D01*
X0066926Y0019350D01*
X0067034Y0019486D01*
X0067146Y0019619D01*
X0067261Y0019749D01*
X0067379Y0019876D01*
X0067500Y0020000D01*
X0067624Y0020121D01*
X0067751Y0020239D01*
X0067881Y0020354D01*
X0068014Y0020466D01*
X0068150Y0020574D01*
X0068288Y0020679D01*
X0068428Y0020781D01*
X0068572Y0020879D01*
X0068717Y0020974D01*
X0068865Y0021065D01*
X0069015Y0021152D01*
X0069167Y0021236D01*
X0069321Y0021316D01*
X0069477Y0021392D01*
X0069635Y0021464D01*
X0069794Y0021533D01*
X0069955Y0021597D01*
X0070118Y0021658D01*
X0070282Y0021714D01*
X0070447Y0021767D01*
X0070614Y0021815D01*
X0070782Y0021859D01*
X0070951Y0021899D01*
X0071121Y0021935D01*
X0071291Y0021967D01*
X0071462Y0021994D01*
X0071634Y0022018D01*
X0071807Y0022037D01*
X0071980Y0022052D01*
X0072153Y0022062D01*
X0072326Y0022069D01*
X0072500Y0022071D01*
X0072674Y0022069D01*
X0072847Y0022062D01*
X0073020Y0022052D01*
X0073193Y0022037D01*
X0073366Y0022018D01*
X0073538Y0021994D01*
X0073709Y0021967D01*
X0073879Y0021935D01*
X0074049Y0021899D01*
X0074218Y0021859D01*
X0074386Y0021815D01*
X0074553Y0021767D01*
X0074718Y0021714D01*
X0074882Y0021658D01*
X0075045Y0021597D01*
X0075206Y0021533D01*
X0075365Y0021464D01*
X0075523Y0021392D01*
X0075679Y0021316D01*
X0075833Y0021236D01*
X0075985Y0021152D01*
X0076135Y0021065D01*
X0076283Y0020974D01*
X0076428Y0020879D01*
X0076572Y0020781D01*
X0076712Y0020679D01*
X0076850Y0020574D01*
X0076986Y0020466D01*
X0077119Y0020354D01*
X0077249Y0020239D01*
X0077376Y0020121D01*
X0077500Y0020000D01*
X0077621Y0019876D01*
X0077739Y0019749D01*
X0077854Y0019619D01*
X0077966Y0019486D01*
X0078074Y0019350D01*
X0078179Y0019212D01*
X0078281Y0019072D01*
X0078379Y0018928D01*
X0078474Y0018783D01*
X0078565Y0018635D01*
X0078652Y0018485D01*
X0078736Y0018333D01*
X0078816Y0018179D01*
X0078892Y0018023D01*
X0078964Y0017865D01*
X0079033Y0017706D01*
X0079097Y0017545D01*
X0079158Y0017382D01*
X0079214Y0017218D01*
X0079267Y0017053D01*
X0079315Y0016886D01*
X0079359Y0016718D01*
X0079399Y0016549D01*
X0079435Y0016379D01*
X0079467Y0016209D01*
X0079494Y0016038D01*
X0079518Y0015866D01*
X0079537Y0015693D01*
X0079552Y0015520D01*
X0079562Y0015347D01*
X0079569Y0015174D01*
X0079571Y0015000D01*
X0079569Y0014826D01*
X0079562Y0014653D01*
X0079552Y0014480D01*
X0079537Y0014307D01*
X0079518Y0014134D01*
X0079494Y0013962D01*
X0079467Y0013791D01*
X0079435Y0013621D01*
X0079399Y0013451D01*
X0079359Y0013282D01*
X0079315Y0013114D01*
X0079267Y0012947D01*
X0079214Y0012782D01*
X0079158Y0012618D01*
X0079097Y0012455D01*
X0079033Y0012294D01*
X0078964Y0012135D01*
X0078892Y0011977D01*
X0078816Y0011821D01*
X0078736Y0011667D01*
X0078652Y0011515D01*
X0078565Y0011365D01*
X0078474Y0011217D01*
X0078379Y0011072D01*
X0078281Y0010928D01*
X0078179Y0010788D01*
X0078074Y0010650D01*
X0077966Y0010514D01*
X0077854Y0010381D01*
X0077739Y0010251D01*
X0077621Y0010124D01*
X0077500Y0010000D01*
X0077376Y0009879D01*
X0077249Y0009761D01*
X0077119Y0009646D01*
X0076986Y0009534D01*
X0076850Y0009426D01*
X0076712Y0009321D01*
X0076572Y0009219D01*
X0076428Y0009121D01*
X0076283Y0009026D01*
X0076135Y0008935D01*
X0075985Y0008848D01*
X0075833Y0008764D01*
X0075679Y0008684D01*
X0075523Y0008608D01*
X0075365Y0008536D01*
X0075206Y0008467D01*
X0075045Y0008403D01*
X0074882Y0008342D01*
X0074718Y0008286D01*
X0074553Y0008233D01*
X0074386Y0008185D01*
X0074218Y0008141D01*
X0074049Y0008101D01*
X0073879Y0008065D01*
X0073709Y0008033D01*
X0073538Y0008006D01*
X0073366Y0007982D01*
X0073193Y0007963D01*
X0073020Y0007948D01*
X0072847Y0007938D01*
X0072674Y0007931D01*
X0072500Y0007929D01*
X0072326Y0007931D01*
X0072153Y0007938D01*
X0071980Y0007948D01*
X0071807Y0007963D01*
X0071634Y0007982D01*
X0071462Y0008006D01*
X0071291Y0008033D01*
X0071121Y0008065D01*
X0070951Y0008101D01*
X0070782Y0008141D01*
X0070614Y0008185D01*
X0070447Y0008233D01*
X0070282Y0008286D01*
X0070118Y0008342D01*
X0069955Y0008403D01*
X0069794Y0008467D01*
X0069635Y0008536D01*
X0069477Y0008608D01*
X0069321Y0008684D01*
X0069167Y0008764D01*
X0069015Y0008848D01*
X0068865Y0008935D01*
X0068717Y0009026D01*
X0068572Y0009121D01*
X0068428Y0009219D01*
X0068288Y0009321D01*
X0068150Y0009426D01*
X0068014Y0009534D01*
X0067881Y0009646D01*
X0067751Y0009761D01*
X0067624Y0009879D01*
X0067500Y0010000D01*
X0067379Y0010124D01*
X0067261Y0010251D01*
X0067146Y0010381D01*
X0067034Y0010514D01*
X0066926Y0010650D01*
X0066821Y0010788D01*
X0066719Y0010928D01*
X0066621Y0011072D01*
X0066526Y0011217D01*
X0066435Y0011365D01*
X0066348Y0011515D01*
X0066264Y0011667D01*
X0066184Y0011821D01*
X0066108Y0011977D01*
X0066036Y0012135D01*
X0065967Y0012294D01*
X0065903Y0012455D01*
X0065842Y0012618D01*
X0065786Y0012782D01*
X0065733Y0012947D01*
X0065685Y0013114D01*
X0065641Y0013282D01*
X0065601Y0013451D01*
X0065565Y0013621D01*
X0065533Y0013791D01*
X0065506Y0013962D01*
X0065482Y0014134D01*
X0065463Y0014307D01*
X0065448Y0014480D01*
X0065438Y0014653D01*
X0065431Y0014826D01*
X0065429Y0015000D01*
X0225157Y0132815D02*
X0225160Y0133057D01*
X0225169Y0133298D01*
X0225184Y0133539D01*
X0225204Y0133780D01*
X0225231Y0134020D01*
X0225264Y0134259D01*
X0225302Y0134498D01*
X0225346Y0134735D01*
X0225396Y0134972D01*
X0225452Y0135207D01*
X0225514Y0135440D01*
X0225581Y0135672D01*
X0225654Y0135903D01*
X0225732Y0136131D01*
X0225817Y0136357D01*
X0225906Y0136582D01*
X0226001Y0136804D01*
X0226102Y0137023D01*
X0226208Y0137241D01*
X0226319Y0137455D01*
X0226436Y0137667D01*
X0226557Y0137875D01*
X0226684Y0138081D01*
X0226816Y0138283D01*
X0226953Y0138483D01*
X0227094Y0138678D01*
X0227240Y0138871D01*
X0227391Y0139059D01*
X0227547Y0139244D01*
X0227707Y0139425D01*
X0227871Y0139602D01*
X0228040Y0139775D01*
X0228213Y0139944D01*
X0228390Y0140108D01*
X0228571Y0140268D01*
X0228756Y0140424D01*
X0228944Y0140575D01*
X0229137Y0140721D01*
X0229332Y0140862D01*
X0229532Y0140999D01*
X0229734Y0141131D01*
X0229940Y0141258D01*
X0230148Y0141379D01*
X0230360Y0141496D01*
X0230574Y0141607D01*
X0230792Y0141713D01*
X0231011Y0141814D01*
X0231233Y0141909D01*
X0231458Y0141998D01*
X0231684Y0142083D01*
X0231912Y0142161D01*
X0232143Y0142234D01*
X0232375Y0142301D01*
X0232608Y0142363D01*
X0232843Y0142419D01*
X0233080Y0142469D01*
X0233317Y0142513D01*
X0233556Y0142551D01*
X0233795Y0142584D01*
X0234035Y0142611D01*
X0234276Y0142631D01*
X0234517Y0142646D01*
X0234758Y0142655D01*
X0235000Y0142658D01*
X0235242Y0142655D01*
X0235483Y0142646D01*
X0235724Y0142631D01*
X0235965Y0142611D01*
X0236205Y0142584D01*
X0236444Y0142551D01*
X0236683Y0142513D01*
X0236920Y0142469D01*
X0237157Y0142419D01*
X0237392Y0142363D01*
X0237625Y0142301D01*
X0237857Y0142234D01*
X0238088Y0142161D01*
X0238316Y0142083D01*
X0238542Y0141998D01*
X0238767Y0141909D01*
X0238989Y0141814D01*
X0239208Y0141713D01*
X0239426Y0141607D01*
X0239640Y0141496D01*
X0239852Y0141379D01*
X0240060Y0141258D01*
X0240266Y0141131D01*
X0240468Y0140999D01*
X0240668Y0140862D01*
X0240863Y0140721D01*
X0241056Y0140575D01*
X0241244Y0140424D01*
X0241429Y0140268D01*
X0241610Y0140108D01*
X0241787Y0139944D01*
X0241960Y0139775D01*
X0242129Y0139602D01*
X0242293Y0139425D01*
X0242453Y0139244D01*
X0242609Y0139059D01*
X0242760Y0138871D01*
X0242906Y0138678D01*
X0243047Y0138483D01*
X0243184Y0138283D01*
X0243316Y0138081D01*
X0243443Y0137875D01*
X0243564Y0137667D01*
X0243681Y0137455D01*
X0243792Y0137241D01*
X0243898Y0137023D01*
X0243999Y0136804D01*
X0244094Y0136582D01*
X0244183Y0136357D01*
X0244268Y0136131D01*
X0244346Y0135903D01*
X0244419Y0135672D01*
X0244486Y0135440D01*
X0244548Y0135207D01*
X0244604Y0134972D01*
X0244654Y0134735D01*
X0244698Y0134498D01*
X0244736Y0134259D01*
X0244769Y0134020D01*
X0244796Y0133780D01*
X0244816Y0133539D01*
X0244831Y0133298D01*
X0244840Y0133057D01*
X0244843Y0132815D01*
X0244840Y0132573D01*
X0244831Y0132332D01*
X0244816Y0132091D01*
X0244796Y0131850D01*
X0244769Y0131610D01*
X0244736Y0131371D01*
X0244698Y0131132D01*
X0244654Y0130895D01*
X0244604Y0130658D01*
X0244548Y0130423D01*
X0244486Y0130190D01*
X0244419Y0129958D01*
X0244346Y0129727D01*
X0244268Y0129499D01*
X0244183Y0129273D01*
X0244094Y0129048D01*
X0243999Y0128826D01*
X0243898Y0128607D01*
X0243792Y0128389D01*
X0243681Y0128175D01*
X0243564Y0127963D01*
X0243443Y0127755D01*
X0243316Y0127549D01*
X0243184Y0127347D01*
X0243047Y0127147D01*
X0242906Y0126952D01*
X0242760Y0126759D01*
X0242609Y0126571D01*
X0242453Y0126386D01*
X0242293Y0126205D01*
X0242129Y0126028D01*
X0241960Y0125855D01*
X0241787Y0125686D01*
X0241610Y0125522D01*
X0241429Y0125362D01*
X0241244Y0125206D01*
X0241056Y0125055D01*
X0240863Y0124909D01*
X0240668Y0124768D01*
X0240468Y0124631D01*
X0240266Y0124499D01*
X0240060Y0124372D01*
X0239852Y0124251D01*
X0239640Y0124134D01*
X0239426Y0124023D01*
X0239208Y0123917D01*
X0238989Y0123816D01*
X0238767Y0123721D01*
X0238542Y0123632D01*
X0238316Y0123547D01*
X0238088Y0123469D01*
X0237857Y0123396D01*
X0237625Y0123329D01*
X0237392Y0123267D01*
X0237157Y0123211D01*
X0236920Y0123161D01*
X0236683Y0123117D01*
X0236444Y0123079D01*
X0236205Y0123046D01*
X0235965Y0123019D01*
X0235724Y0122999D01*
X0235483Y0122984D01*
X0235242Y0122975D01*
X0235000Y0122972D01*
X0234758Y0122975D01*
X0234517Y0122984D01*
X0234276Y0122999D01*
X0234035Y0123019D01*
X0233795Y0123046D01*
X0233556Y0123079D01*
X0233317Y0123117D01*
X0233080Y0123161D01*
X0232843Y0123211D01*
X0232608Y0123267D01*
X0232375Y0123329D01*
X0232143Y0123396D01*
X0231912Y0123469D01*
X0231684Y0123547D01*
X0231458Y0123632D01*
X0231233Y0123721D01*
X0231011Y0123816D01*
X0230792Y0123917D01*
X0230574Y0124023D01*
X0230360Y0124134D01*
X0230148Y0124251D01*
X0229940Y0124372D01*
X0229734Y0124499D01*
X0229532Y0124631D01*
X0229332Y0124768D01*
X0229137Y0124909D01*
X0228944Y0125055D01*
X0228756Y0125206D01*
X0228571Y0125362D01*
X0228390Y0125522D01*
X0228213Y0125686D01*
X0228040Y0125855D01*
X0227871Y0126028D01*
X0227707Y0126205D01*
X0227547Y0126386D01*
X0227391Y0126571D01*
X0227240Y0126759D01*
X0227094Y0126952D01*
X0226953Y0127147D01*
X0226816Y0127347D01*
X0226684Y0127549D01*
X0226557Y0127755D01*
X0226436Y0127963D01*
X0226319Y0128175D01*
X0226208Y0128389D01*
X0226102Y0128607D01*
X0226001Y0128826D01*
X0225906Y0129048D01*
X0225817Y0129273D01*
X0225732Y0129499D01*
X0225654Y0129727D01*
X0225581Y0129958D01*
X0225514Y0130190D01*
X0225452Y0130423D01*
X0225396Y0130658D01*
X0225346Y0130895D01*
X0225302Y0131132D01*
X0225264Y0131371D01*
X0225231Y0131610D01*
X0225204Y0131850D01*
X0225184Y0132091D01*
X0225169Y0132332D01*
X0225160Y0132573D01*
X0225157Y0132815D01*
X0270429Y0145000D02*
X0270431Y0145174D01*
X0270438Y0145347D01*
X0270448Y0145520D01*
X0270463Y0145693D01*
X0270482Y0145866D01*
X0270506Y0146038D01*
X0270533Y0146209D01*
X0270565Y0146379D01*
X0270601Y0146549D01*
X0270641Y0146718D01*
X0270685Y0146886D01*
X0270733Y0147053D01*
X0270786Y0147218D01*
X0270842Y0147382D01*
X0270903Y0147545D01*
X0270967Y0147706D01*
X0271036Y0147865D01*
X0271108Y0148023D01*
X0271184Y0148179D01*
X0271264Y0148333D01*
X0271348Y0148485D01*
X0271435Y0148635D01*
X0271526Y0148783D01*
X0271621Y0148928D01*
X0271719Y0149072D01*
X0271821Y0149212D01*
X0271926Y0149350D01*
X0272034Y0149486D01*
X0272146Y0149619D01*
X0272261Y0149749D01*
X0272379Y0149876D01*
X0272500Y0150000D01*
X0272624Y0150121D01*
X0272751Y0150239D01*
X0272881Y0150354D01*
X0273014Y0150466D01*
X0273150Y0150574D01*
X0273288Y0150679D01*
X0273428Y0150781D01*
X0273572Y0150879D01*
X0273717Y0150974D01*
X0273865Y0151065D01*
X0274015Y0151152D01*
X0274167Y0151236D01*
X0274321Y0151316D01*
X0274477Y0151392D01*
X0274635Y0151464D01*
X0274794Y0151533D01*
X0274955Y0151597D01*
X0275118Y0151658D01*
X0275282Y0151714D01*
X0275447Y0151767D01*
X0275614Y0151815D01*
X0275782Y0151859D01*
X0275951Y0151899D01*
X0276121Y0151935D01*
X0276291Y0151967D01*
X0276462Y0151994D01*
X0276634Y0152018D01*
X0276807Y0152037D01*
X0276980Y0152052D01*
X0277153Y0152062D01*
X0277326Y0152069D01*
X0277500Y0152071D01*
X0277674Y0152069D01*
X0277847Y0152062D01*
X0278020Y0152052D01*
X0278193Y0152037D01*
X0278366Y0152018D01*
X0278538Y0151994D01*
X0278709Y0151967D01*
X0278879Y0151935D01*
X0279049Y0151899D01*
X0279218Y0151859D01*
X0279386Y0151815D01*
X0279553Y0151767D01*
X0279718Y0151714D01*
X0279882Y0151658D01*
X0280045Y0151597D01*
X0280206Y0151533D01*
X0280365Y0151464D01*
X0280523Y0151392D01*
X0280679Y0151316D01*
X0280833Y0151236D01*
X0280985Y0151152D01*
X0281135Y0151065D01*
X0281283Y0150974D01*
X0281428Y0150879D01*
X0281572Y0150781D01*
X0281712Y0150679D01*
X0281850Y0150574D01*
X0281986Y0150466D01*
X0282119Y0150354D01*
X0282249Y0150239D01*
X0282376Y0150121D01*
X0282500Y0150000D01*
X0282621Y0149876D01*
X0282739Y0149749D01*
X0282854Y0149619D01*
X0282966Y0149486D01*
X0283074Y0149350D01*
X0283179Y0149212D01*
X0283281Y0149072D01*
X0283379Y0148928D01*
X0283474Y0148783D01*
X0283565Y0148635D01*
X0283652Y0148485D01*
X0283736Y0148333D01*
X0283816Y0148179D01*
X0283892Y0148023D01*
X0283964Y0147865D01*
X0284033Y0147706D01*
X0284097Y0147545D01*
X0284158Y0147382D01*
X0284214Y0147218D01*
X0284267Y0147053D01*
X0284315Y0146886D01*
X0284359Y0146718D01*
X0284399Y0146549D01*
X0284435Y0146379D01*
X0284467Y0146209D01*
X0284494Y0146038D01*
X0284518Y0145866D01*
X0284537Y0145693D01*
X0284552Y0145520D01*
X0284562Y0145347D01*
X0284569Y0145174D01*
X0284571Y0145000D01*
X0284569Y0144826D01*
X0284562Y0144653D01*
X0284552Y0144480D01*
X0284537Y0144307D01*
X0284518Y0144134D01*
X0284494Y0143962D01*
X0284467Y0143791D01*
X0284435Y0143621D01*
X0284399Y0143451D01*
X0284359Y0143282D01*
X0284315Y0143114D01*
X0284267Y0142947D01*
X0284214Y0142782D01*
X0284158Y0142618D01*
X0284097Y0142455D01*
X0284033Y0142294D01*
X0283964Y0142135D01*
X0283892Y0141977D01*
X0283816Y0141821D01*
X0283736Y0141667D01*
X0283652Y0141515D01*
X0283565Y0141365D01*
X0283474Y0141217D01*
X0283379Y0141072D01*
X0283281Y0140928D01*
X0283179Y0140788D01*
X0283074Y0140650D01*
X0282966Y0140514D01*
X0282854Y0140381D01*
X0282739Y0140251D01*
X0282621Y0140124D01*
X0282500Y0140000D01*
X0282376Y0139879D01*
X0282249Y0139761D01*
X0282119Y0139646D01*
X0281986Y0139534D01*
X0281850Y0139426D01*
X0281712Y0139321D01*
X0281572Y0139219D01*
X0281428Y0139121D01*
X0281283Y0139026D01*
X0281135Y0138935D01*
X0280985Y0138848D01*
X0280833Y0138764D01*
X0280679Y0138684D01*
X0280523Y0138608D01*
X0280365Y0138536D01*
X0280206Y0138467D01*
X0280045Y0138403D01*
X0279882Y0138342D01*
X0279718Y0138286D01*
X0279553Y0138233D01*
X0279386Y0138185D01*
X0279218Y0138141D01*
X0279049Y0138101D01*
X0278879Y0138065D01*
X0278709Y0138033D01*
X0278538Y0138006D01*
X0278366Y0137982D01*
X0278193Y0137963D01*
X0278020Y0137948D01*
X0277847Y0137938D01*
X0277674Y0137931D01*
X0277500Y0137929D01*
X0277326Y0137931D01*
X0277153Y0137938D01*
X0276980Y0137948D01*
X0276807Y0137963D01*
X0276634Y0137982D01*
X0276462Y0138006D01*
X0276291Y0138033D01*
X0276121Y0138065D01*
X0275951Y0138101D01*
X0275782Y0138141D01*
X0275614Y0138185D01*
X0275447Y0138233D01*
X0275282Y0138286D01*
X0275118Y0138342D01*
X0274955Y0138403D01*
X0274794Y0138467D01*
X0274635Y0138536D01*
X0274477Y0138608D01*
X0274321Y0138684D01*
X0274167Y0138764D01*
X0274015Y0138848D01*
X0273865Y0138935D01*
X0273717Y0139026D01*
X0273572Y0139121D01*
X0273428Y0139219D01*
X0273288Y0139321D01*
X0273150Y0139426D01*
X0273014Y0139534D01*
X0272881Y0139646D01*
X0272751Y0139761D01*
X0272624Y0139879D01*
X0272500Y0140000D01*
X0272379Y0140124D01*
X0272261Y0140251D01*
X0272146Y0140381D01*
X0272034Y0140514D01*
X0271926Y0140650D01*
X0271821Y0140788D01*
X0271719Y0140928D01*
X0271621Y0141072D01*
X0271526Y0141217D01*
X0271435Y0141365D01*
X0271348Y0141515D01*
X0271264Y0141667D01*
X0271184Y0141821D01*
X0271108Y0141977D01*
X0271036Y0142135D01*
X0270967Y0142294D01*
X0270903Y0142455D01*
X0270842Y0142618D01*
X0270786Y0142782D01*
X0270733Y0142947D01*
X0270685Y0143114D01*
X0270641Y0143282D01*
X0270601Y0143451D01*
X0270565Y0143621D01*
X0270533Y0143791D01*
X0270506Y0143962D01*
X0270482Y0144134D01*
X0270463Y0144307D01*
X0270448Y0144480D01*
X0270438Y0144653D01*
X0270431Y0144826D01*
X0270429Y0145000D01*
X0225157Y0172185D02*
X0225160Y0172427D01*
X0225169Y0172668D01*
X0225184Y0172909D01*
X0225204Y0173150D01*
X0225231Y0173390D01*
X0225264Y0173629D01*
X0225302Y0173868D01*
X0225346Y0174105D01*
X0225396Y0174342D01*
X0225452Y0174577D01*
X0225514Y0174810D01*
X0225581Y0175042D01*
X0225654Y0175273D01*
X0225732Y0175501D01*
X0225817Y0175727D01*
X0225906Y0175952D01*
X0226001Y0176174D01*
X0226102Y0176393D01*
X0226208Y0176611D01*
X0226319Y0176825D01*
X0226436Y0177037D01*
X0226557Y0177245D01*
X0226684Y0177451D01*
X0226816Y0177653D01*
X0226953Y0177853D01*
X0227094Y0178048D01*
X0227240Y0178241D01*
X0227391Y0178429D01*
X0227547Y0178614D01*
X0227707Y0178795D01*
X0227871Y0178972D01*
X0228040Y0179145D01*
X0228213Y0179314D01*
X0228390Y0179478D01*
X0228571Y0179638D01*
X0228756Y0179794D01*
X0228944Y0179945D01*
X0229137Y0180091D01*
X0229332Y0180232D01*
X0229532Y0180369D01*
X0229734Y0180501D01*
X0229940Y0180628D01*
X0230148Y0180749D01*
X0230360Y0180866D01*
X0230574Y0180977D01*
X0230792Y0181083D01*
X0231011Y0181184D01*
X0231233Y0181279D01*
X0231458Y0181368D01*
X0231684Y0181453D01*
X0231912Y0181531D01*
X0232143Y0181604D01*
X0232375Y0181671D01*
X0232608Y0181733D01*
X0232843Y0181789D01*
X0233080Y0181839D01*
X0233317Y0181883D01*
X0233556Y0181921D01*
X0233795Y0181954D01*
X0234035Y0181981D01*
X0234276Y0182001D01*
X0234517Y0182016D01*
X0234758Y0182025D01*
X0235000Y0182028D01*
X0235242Y0182025D01*
X0235483Y0182016D01*
X0235724Y0182001D01*
X0235965Y0181981D01*
X0236205Y0181954D01*
X0236444Y0181921D01*
X0236683Y0181883D01*
X0236920Y0181839D01*
X0237157Y0181789D01*
X0237392Y0181733D01*
X0237625Y0181671D01*
X0237857Y0181604D01*
X0238088Y0181531D01*
X0238316Y0181453D01*
X0238542Y0181368D01*
X0238767Y0181279D01*
X0238989Y0181184D01*
X0239208Y0181083D01*
X0239426Y0180977D01*
X0239640Y0180866D01*
X0239852Y0180749D01*
X0240060Y0180628D01*
X0240266Y0180501D01*
X0240468Y0180369D01*
X0240668Y0180232D01*
X0240863Y0180091D01*
X0241056Y0179945D01*
X0241244Y0179794D01*
X0241429Y0179638D01*
X0241610Y0179478D01*
X0241787Y0179314D01*
X0241960Y0179145D01*
X0242129Y0178972D01*
X0242293Y0178795D01*
X0242453Y0178614D01*
X0242609Y0178429D01*
X0242760Y0178241D01*
X0242906Y0178048D01*
X0243047Y0177853D01*
X0243184Y0177653D01*
X0243316Y0177451D01*
X0243443Y0177245D01*
X0243564Y0177037D01*
X0243681Y0176825D01*
X0243792Y0176611D01*
X0243898Y0176393D01*
X0243999Y0176174D01*
X0244094Y0175952D01*
X0244183Y0175727D01*
X0244268Y0175501D01*
X0244346Y0175273D01*
X0244419Y0175042D01*
X0244486Y0174810D01*
X0244548Y0174577D01*
X0244604Y0174342D01*
X0244654Y0174105D01*
X0244698Y0173868D01*
X0244736Y0173629D01*
X0244769Y0173390D01*
X0244796Y0173150D01*
X0244816Y0172909D01*
X0244831Y0172668D01*
X0244840Y0172427D01*
X0244843Y0172185D01*
X0244840Y0171943D01*
X0244831Y0171702D01*
X0244816Y0171461D01*
X0244796Y0171220D01*
X0244769Y0170980D01*
X0244736Y0170741D01*
X0244698Y0170502D01*
X0244654Y0170265D01*
X0244604Y0170028D01*
X0244548Y0169793D01*
X0244486Y0169560D01*
X0244419Y0169328D01*
X0244346Y0169097D01*
X0244268Y0168869D01*
X0244183Y0168643D01*
X0244094Y0168418D01*
X0243999Y0168196D01*
X0243898Y0167977D01*
X0243792Y0167759D01*
X0243681Y0167545D01*
X0243564Y0167333D01*
X0243443Y0167125D01*
X0243316Y0166919D01*
X0243184Y0166717D01*
X0243047Y0166517D01*
X0242906Y0166322D01*
X0242760Y0166129D01*
X0242609Y0165941D01*
X0242453Y0165756D01*
X0242293Y0165575D01*
X0242129Y0165398D01*
X0241960Y0165225D01*
X0241787Y0165056D01*
X0241610Y0164892D01*
X0241429Y0164732D01*
X0241244Y0164576D01*
X0241056Y0164425D01*
X0240863Y0164279D01*
X0240668Y0164138D01*
X0240468Y0164001D01*
X0240266Y0163869D01*
X0240060Y0163742D01*
X0239852Y0163621D01*
X0239640Y0163504D01*
X0239426Y0163393D01*
X0239208Y0163287D01*
X0238989Y0163186D01*
X0238767Y0163091D01*
X0238542Y0163002D01*
X0238316Y0162917D01*
X0238088Y0162839D01*
X0237857Y0162766D01*
X0237625Y0162699D01*
X0237392Y0162637D01*
X0237157Y0162581D01*
X0236920Y0162531D01*
X0236683Y0162487D01*
X0236444Y0162449D01*
X0236205Y0162416D01*
X0235965Y0162389D01*
X0235724Y0162369D01*
X0235483Y0162354D01*
X0235242Y0162345D01*
X0235000Y0162342D01*
X0234758Y0162345D01*
X0234517Y0162354D01*
X0234276Y0162369D01*
X0234035Y0162389D01*
X0233795Y0162416D01*
X0233556Y0162449D01*
X0233317Y0162487D01*
X0233080Y0162531D01*
X0232843Y0162581D01*
X0232608Y0162637D01*
X0232375Y0162699D01*
X0232143Y0162766D01*
X0231912Y0162839D01*
X0231684Y0162917D01*
X0231458Y0163002D01*
X0231233Y0163091D01*
X0231011Y0163186D01*
X0230792Y0163287D01*
X0230574Y0163393D01*
X0230360Y0163504D01*
X0230148Y0163621D01*
X0229940Y0163742D01*
X0229734Y0163869D01*
X0229532Y0164001D01*
X0229332Y0164138D01*
X0229137Y0164279D01*
X0228944Y0164425D01*
X0228756Y0164576D01*
X0228571Y0164732D01*
X0228390Y0164892D01*
X0228213Y0165056D01*
X0228040Y0165225D01*
X0227871Y0165398D01*
X0227707Y0165575D01*
X0227547Y0165756D01*
X0227391Y0165941D01*
X0227240Y0166129D01*
X0227094Y0166322D01*
X0226953Y0166517D01*
X0226816Y0166717D01*
X0226684Y0166919D01*
X0226557Y0167125D01*
X0226436Y0167333D01*
X0226319Y0167545D01*
X0226208Y0167759D01*
X0226102Y0167977D01*
X0226001Y0168196D01*
X0225906Y0168418D01*
X0225817Y0168643D01*
X0225732Y0168869D01*
X0225654Y0169097D01*
X0225581Y0169328D01*
X0225514Y0169560D01*
X0225452Y0169793D01*
X0225396Y0170028D01*
X0225346Y0170265D01*
X0225302Y0170502D01*
X0225264Y0170741D01*
X0225231Y0170980D01*
X0225204Y0171220D01*
X0225184Y0171461D01*
X0225169Y0171702D01*
X0225160Y0171943D01*
X0225157Y0172185D01*
X0070429Y0205000D02*
X0070431Y0205174D01*
X0070438Y0205347D01*
X0070448Y0205520D01*
X0070463Y0205693D01*
X0070482Y0205866D01*
X0070506Y0206038D01*
X0070533Y0206209D01*
X0070565Y0206379D01*
X0070601Y0206549D01*
X0070641Y0206718D01*
X0070685Y0206886D01*
X0070733Y0207053D01*
X0070786Y0207218D01*
X0070842Y0207382D01*
X0070903Y0207545D01*
X0070967Y0207706D01*
X0071036Y0207865D01*
X0071108Y0208023D01*
X0071184Y0208179D01*
X0071264Y0208333D01*
X0071348Y0208485D01*
X0071435Y0208635D01*
X0071526Y0208783D01*
X0071621Y0208928D01*
X0071719Y0209072D01*
X0071821Y0209212D01*
X0071926Y0209350D01*
X0072034Y0209486D01*
X0072146Y0209619D01*
X0072261Y0209749D01*
X0072379Y0209876D01*
X0072500Y0210000D01*
X0072624Y0210121D01*
X0072751Y0210239D01*
X0072881Y0210354D01*
X0073014Y0210466D01*
X0073150Y0210574D01*
X0073288Y0210679D01*
X0073428Y0210781D01*
X0073572Y0210879D01*
X0073717Y0210974D01*
X0073865Y0211065D01*
X0074015Y0211152D01*
X0074167Y0211236D01*
X0074321Y0211316D01*
X0074477Y0211392D01*
X0074635Y0211464D01*
X0074794Y0211533D01*
X0074955Y0211597D01*
X0075118Y0211658D01*
X0075282Y0211714D01*
X0075447Y0211767D01*
X0075614Y0211815D01*
X0075782Y0211859D01*
X0075951Y0211899D01*
X0076121Y0211935D01*
X0076291Y0211967D01*
X0076462Y0211994D01*
X0076634Y0212018D01*
X0076807Y0212037D01*
X0076980Y0212052D01*
X0077153Y0212062D01*
X0077326Y0212069D01*
X0077500Y0212071D01*
X0077674Y0212069D01*
X0077847Y0212062D01*
X0078020Y0212052D01*
X0078193Y0212037D01*
X0078366Y0212018D01*
X0078538Y0211994D01*
X0078709Y0211967D01*
X0078879Y0211935D01*
X0079049Y0211899D01*
X0079218Y0211859D01*
X0079386Y0211815D01*
X0079553Y0211767D01*
X0079718Y0211714D01*
X0079882Y0211658D01*
X0080045Y0211597D01*
X0080206Y0211533D01*
X0080365Y0211464D01*
X0080523Y0211392D01*
X0080679Y0211316D01*
X0080833Y0211236D01*
X0080985Y0211152D01*
X0081135Y0211065D01*
X0081283Y0210974D01*
X0081428Y0210879D01*
X0081572Y0210781D01*
X0081712Y0210679D01*
X0081850Y0210574D01*
X0081986Y0210466D01*
X0082119Y0210354D01*
X0082249Y0210239D01*
X0082376Y0210121D01*
X0082500Y0210000D01*
X0082621Y0209876D01*
X0082739Y0209749D01*
X0082854Y0209619D01*
X0082966Y0209486D01*
X0083074Y0209350D01*
X0083179Y0209212D01*
X0083281Y0209072D01*
X0083379Y0208928D01*
X0083474Y0208783D01*
X0083565Y0208635D01*
X0083652Y0208485D01*
X0083736Y0208333D01*
X0083816Y0208179D01*
X0083892Y0208023D01*
X0083964Y0207865D01*
X0084033Y0207706D01*
X0084097Y0207545D01*
X0084158Y0207382D01*
X0084214Y0207218D01*
X0084267Y0207053D01*
X0084315Y0206886D01*
X0084359Y0206718D01*
X0084399Y0206549D01*
X0084435Y0206379D01*
X0084467Y0206209D01*
X0084494Y0206038D01*
X0084518Y0205866D01*
X0084537Y0205693D01*
X0084552Y0205520D01*
X0084562Y0205347D01*
X0084569Y0205174D01*
X0084571Y0205000D01*
X0084569Y0204826D01*
X0084562Y0204653D01*
X0084552Y0204480D01*
X0084537Y0204307D01*
X0084518Y0204134D01*
X0084494Y0203962D01*
X0084467Y0203791D01*
X0084435Y0203621D01*
X0084399Y0203451D01*
X0084359Y0203282D01*
X0084315Y0203114D01*
X0084267Y0202947D01*
X0084214Y0202782D01*
X0084158Y0202618D01*
X0084097Y0202455D01*
X0084033Y0202294D01*
X0083964Y0202135D01*
X0083892Y0201977D01*
X0083816Y0201821D01*
X0083736Y0201667D01*
X0083652Y0201515D01*
X0083565Y0201365D01*
X0083474Y0201217D01*
X0083379Y0201072D01*
X0083281Y0200928D01*
X0083179Y0200788D01*
X0083074Y0200650D01*
X0082966Y0200514D01*
X0082854Y0200381D01*
X0082739Y0200251D01*
X0082621Y0200124D01*
X0082500Y0200000D01*
X0082376Y0199879D01*
X0082249Y0199761D01*
X0082119Y0199646D01*
X0081986Y0199534D01*
X0081850Y0199426D01*
X0081712Y0199321D01*
X0081572Y0199219D01*
X0081428Y0199121D01*
X0081283Y0199026D01*
X0081135Y0198935D01*
X0080985Y0198848D01*
X0080833Y0198764D01*
X0080679Y0198684D01*
X0080523Y0198608D01*
X0080365Y0198536D01*
X0080206Y0198467D01*
X0080045Y0198403D01*
X0079882Y0198342D01*
X0079718Y0198286D01*
X0079553Y0198233D01*
X0079386Y0198185D01*
X0079218Y0198141D01*
X0079049Y0198101D01*
X0078879Y0198065D01*
X0078709Y0198033D01*
X0078538Y0198006D01*
X0078366Y0197982D01*
X0078193Y0197963D01*
X0078020Y0197948D01*
X0077847Y0197938D01*
X0077674Y0197931D01*
X0077500Y0197929D01*
X0077326Y0197931D01*
X0077153Y0197938D01*
X0076980Y0197948D01*
X0076807Y0197963D01*
X0076634Y0197982D01*
X0076462Y0198006D01*
X0076291Y0198033D01*
X0076121Y0198065D01*
X0075951Y0198101D01*
X0075782Y0198141D01*
X0075614Y0198185D01*
X0075447Y0198233D01*
X0075282Y0198286D01*
X0075118Y0198342D01*
X0074955Y0198403D01*
X0074794Y0198467D01*
X0074635Y0198536D01*
X0074477Y0198608D01*
X0074321Y0198684D01*
X0074167Y0198764D01*
X0074015Y0198848D01*
X0073865Y0198935D01*
X0073717Y0199026D01*
X0073572Y0199121D01*
X0073428Y0199219D01*
X0073288Y0199321D01*
X0073150Y0199426D01*
X0073014Y0199534D01*
X0072881Y0199646D01*
X0072751Y0199761D01*
X0072624Y0199879D01*
X0072500Y0200000D01*
X0072379Y0200124D01*
X0072261Y0200251D01*
X0072146Y0200381D01*
X0072034Y0200514D01*
X0071926Y0200650D01*
X0071821Y0200788D01*
X0071719Y0200928D01*
X0071621Y0201072D01*
X0071526Y0201217D01*
X0071435Y0201365D01*
X0071348Y0201515D01*
X0071264Y0201667D01*
X0071184Y0201821D01*
X0071108Y0201977D01*
X0071036Y0202135D01*
X0070967Y0202294D01*
X0070903Y0202455D01*
X0070842Y0202618D01*
X0070786Y0202782D01*
X0070733Y0202947D01*
X0070685Y0203114D01*
X0070641Y0203282D01*
X0070601Y0203451D01*
X0070565Y0203621D01*
X0070533Y0203791D01*
X0070506Y0203962D01*
X0070482Y0204134D01*
X0070463Y0204307D01*
X0070448Y0204480D01*
X0070438Y0204653D01*
X0070431Y0204826D01*
X0070429Y0205000D01*
X0270429Y0035000D02*
X0270431Y0035174D01*
X0270438Y0035347D01*
X0270448Y0035520D01*
X0270463Y0035693D01*
X0270482Y0035866D01*
X0270506Y0036038D01*
X0270533Y0036209D01*
X0270565Y0036379D01*
X0270601Y0036549D01*
X0270641Y0036718D01*
X0270685Y0036886D01*
X0270733Y0037053D01*
X0270786Y0037218D01*
X0270842Y0037382D01*
X0270903Y0037545D01*
X0270967Y0037706D01*
X0271036Y0037865D01*
X0271108Y0038023D01*
X0271184Y0038179D01*
X0271264Y0038333D01*
X0271348Y0038485D01*
X0271435Y0038635D01*
X0271526Y0038783D01*
X0271621Y0038928D01*
X0271719Y0039072D01*
X0271821Y0039212D01*
X0271926Y0039350D01*
X0272034Y0039486D01*
X0272146Y0039619D01*
X0272261Y0039749D01*
X0272379Y0039876D01*
X0272500Y0040000D01*
X0272624Y0040121D01*
X0272751Y0040239D01*
X0272881Y0040354D01*
X0273014Y0040466D01*
X0273150Y0040574D01*
X0273288Y0040679D01*
X0273428Y0040781D01*
X0273572Y0040879D01*
X0273717Y0040974D01*
X0273865Y0041065D01*
X0274015Y0041152D01*
X0274167Y0041236D01*
X0274321Y0041316D01*
X0274477Y0041392D01*
X0274635Y0041464D01*
X0274794Y0041533D01*
X0274955Y0041597D01*
X0275118Y0041658D01*
X0275282Y0041714D01*
X0275447Y0041767D01*
X0275614Y0041815D01*
X0275782Y0041859D01*
X0275951Y0041899D01*
X0276121Y0041935D01*
X0276291Y0041967D01*
X0276462Y0041994D01*
X0276634Y0042018D01*
X0276807Y0042037D01*
X0276980Y0042052D01*
X0277153Y0042062D01*
X0277326Y0042069D01*
X0277500Y0042071D01*
X0277674Y0042069D01*
X0277847Y0042062D01*
X0278020Y0042052D01*
X0278193Y0042037D01*
X0278366Y0042018D01*
X0278538Y0041994D01*
X0278709Y0041967D01*
X0278879Y0041935D01*
X0279049Y0041899D01*
X0279218Y0041859D01*
X0279386Y0041815D01*
X0279553Y0041767D01*
X0279718Y0041714D01*
X0279882Y0041658D01*
X0280045Y0041597D01*
X0280206Y0041533D01*
X0280365Y0041464D01*
X0280523Y0041392D01*
X0280679Y0041316D01*
X0280833Y0041236D01*
X0280985Y0041152D01*
X0281135Y0041065D01*
X0281283Y0040974D01*
X0281428Y0040879D01*
X0281572Y0040781D01*
X0281712Y0040679D01*
X0281850Y0040574D01*
X0281986Y0040466D01*
X0282119Y0040354D01*
X0282249Y0040239D01*
X0282376Y0040121D01*
X0282500Y0040000D01*
X0282621Y0039876D01*
X0282739Y0039749D01*
X0282854Y0039619D01*
X0282966Y0039486D01*
X0283074Y0039350D01*
X0283179Y0039212D01*
X0283281Y0039072D01*
X0283379Y0038928D01*
X0283474Y0038783D01*
X0283565Y0038635D01*
X0283652Y0038485D01*
X0283736Y0038333D01*
X0283816Y0038179D01*
X0283892Y0038023D01*
X0283964Y0037865D01*
X0284033Y0037706D01*
X0284097Y0037545D01*
X0284158Y0037382D01*
X0284214Y0037218D01*
X0284267Y0037053D01*
X0284315Y0036886D01*
X0284359Y0036718D01*
X0284399Y0036549D01*
X0284435Y0036379D01*
X0284467Y0036209D01*
X0284494Y0036038D01*
X0284518Y0035866D01*
X0284537Y0035693D01*
X0284552Y0035520D01*
X0284562Y0035347D01*
X0284569Y0035174D01*
X0284571Y0035000D01*
X0284569Y0034826D01*
X0284562Y0034653D01*
X0284552Y0034480D01*
X0284537Y0034307D01*
X0284518Y0034134D01*
X0284494Y0033962D01*
X0284467Y0033791D01*
X0284435Y0033621D01*
X0284399Y0033451D01*
X0284359Y0033282D01*
X0284315Y0033114D01*
X0284267Y0032947D01*
X0284214Y0032782D01*
X0284158Y0032618D01*
X0284097Y0032455D01*
X0284033Y0032294D01*
X0283964Y0032135D01*
X0283892Y0031977D01*
X0283816Y0031821D01*
X0283736Y0031667D01*
X0283652Y0031515D01*
X0283565Y0031365D01*
X0283474Y0031217D01*
X0283379Y0031072D01*
X0283281Y0030928D01*
X0283179Y0030788D01*
X0283074Y0030650D01*
X0282966Y0030514D01*
X0282854Y0030381D01*
X0282739Y0030251D01*
X0282621Y0030124D01*
X0282500Y0030000D01*
X0282376Y0029879D01*
X0282249Y0029761D01*
X0282119Y0029646D01*
X0281986Y0029534D01*
X0281850Y0029426D01*
X0281712Y0029321D01*
X0281572Y0029219D01*
X0281428Y0029121D01*
X0281283Y0029026D01*
X0281135Y0028935D01*
X0280985Y0028848D01*
X0280833Y0028764D01*
X0280679Y0028684D01*
X0280523Y0028608D01*
X0280365Y0028536D01*
X0280206Y0028467D01*
X0280045Y0028403D01*
X0279882Y0028342D01*
X0279718Y0028286D01*
X0279553Y0028233D01*
X0279386Y0028185D01*
X0279218Y0028141D01*
X0279049Y0028101D01*
X0278879Y0028065D01*
X0278709Y0028033D01*
X0278538Y0028006D01*
X0278366Y0027982D01*
X0278193Y0027963D01*
X0278020Y0027948D01*
X0277847Y0027938D01*
X0277674Y0027931D01*
X0277500Y0027929D01*
X0277326Y0027931D01*
X0277153Y0027938D01*
X0276980Y0027948D01*
X0276807Y0027963D01*
X0276634Y0027982D01*
X0276462Y0028006D01*
X0276291Y0028033D01*
X0276121Y0028065D01*
X0275951Y0028101D01*
X0275782Y0028141D01*
X0275614Y0028185D01*
X0275447Y0028233D01*
X0275282Y0028286D01*
X0275118Y0028342D01*
X0274955Y0028403D01*
X0274794Y0028467D01*
X0274635Y0028536D01*
X0274477Y0028608D01*
X0274321Y0028684D01*
X0274167Y0028764D01*
X0274015Y0028848D01*
X0273865Y0028935D01*
X0273717Y0029026D01*
X0273572Y0029121D01*
X0273428Y0029219D01*
X0273288Y0029321D01*
X0273150Y0029426D01*
X0273014Y0029534D01*
X0272881Y0029646D01*
X0272751Y0029761D01*
X0272624Y0029879D01*
X0272500Y0030000D01*
X0272379Y0030124D01*
X0272261Y0030251D01*
X0272146Y0030381D01*
X0272034Y0030514D01*
X0271926Y0030650D01*
X0271821Y0030788D01*
X0271719Y0030928D01*
X0271621Y0031072D01*
X0271526Y0031217D01*
X0271435Y0031365D01*
X0271348Y0031515D01*
X0271264Y0031667D01*
X0271184Y0031821D01*
X0271108Y0031977D01*
X0271036Y0032135D01*
X0270967Y0032294D01*
X0270903Y0032455D01*
X0270842Y0032618D01*
X0270786Y0032782D01*
X0270733Y0032947D01*
X0270685Y0033114D01*
X0270641Y0033282D01*
X0270601Y0033451D01*
X0270565Y0033621D01*
X0270533Y0033791D01*
X0270506Y0033962D01*
X0270482Y0034134D01*
X0270463Y0034307D01*
X0270448Y0034480D01*
X0270438Y0034653D01*
X0270431Y0034826D01*
X0270429Y0035000D01*
D16*
X0237000Y0172185D02*
X0237002Y0172294D01*
X0237008Y0172403D01*
X0237018Y0172511D01*
X0237032Y0172619D01*
X0237049Y0172727D01*
X0237071Y0172834D01*
X0237096Y0172940D01*
X0237126Y0173044D01*
X0237159Y0173148D01*
X0237196Y0173251D01*
X0237236Y0173352D01*
X0237280Y0173451D01*
X0237328Y0173549D01*
X0237380Y0173646D01*
X0237434Y0173740D01*
X0237492Y0173832D01*
X0237554Y0173922D01*
X0237619Y0174009D01*
X0237686Y0174095D01*
X0237757Y0174178D01*
X0237831Y0174258D01*
X0237908Y0174335D01*
X0237987Y0174410D01*
X0238069Y0174481D01*
X0238154Y0174550D01*
X0238241Y0174615D01*
X0238330Y0174678D01*
X0238422Y0174736D01*
X0238516Y0174792D01*
X0238611Y0174844D01*
X0238709Y0174893D01*
X0238808Y0174938D01*
X0238909Y0174980D01*
X0239011Y0175017D01*
X0239114Y0175051D01*
X0239219Y0175082D01*
X0239325Y0175108D01*
X0239431Y0175131D01*
X0239539Y0175149D01*
X0239647Y0175164D01*
X0239755Y0175175D01*
X0239864Y0175182D01*
X0239973Y0175185D01*
X0240082Y0175184D01*
X0240191Y0175179D01*
X0240299Y0175170D01*
X0240407Y0175157D01*
X0240515Y0175140D01*
X0240622Y0175120D01*
X0240728Y0175095D01*
X0240833Y0175067D01*
X0240937Y0175035D01*
X0241040Y0174999D01*
X0241142Y0174959D01*
X0241242Y0174916D01*
X0241340Y0174869D01*
X0241437Y0174819D01*
X0241531Y0174765D01*
X0241624Y0174707D01*
X0241715Y0174647D01*
X0241803Y0174583D01*
X0241889Y0174516D01*
X0241972Y0174446D01*
X0242053Y0174373D01*
X0242131Y0174297D01*
X0242206Y0174218D01*
X0242279Y0174136D01*
X0242348Y0174052D01*
X0242414Y0173966D01*
X0242477Y0173877D01*
X0242537Y0173786D01*
X0242594Y0173693D01*
X0242647Y0173598D01*
X0242696Y0173501D01*
X0242742Y0173402D01*
X0242784Y0173302D01*
X0242823Y0173200D01*
X0242858Y0173096D01*
X0242889Y0172992D01*
X0242917Y0172887D01*
X0242940Y0172780D01*
X0242960Y0172673D01*
X0242976Y0172565D01*
X0242988Y0172457D01*
X0242996Y0172348D01*
X0243000Y0172239D01*
X0243000Y0172131D01*
X0242996Y0172022D01*
X0242988Y0171913D01*
X0242976Y0171805D01*
X0242960Y0171697D01*
X0242940Y0171590D01*
X0242917Y0171483D01*
X0242889Y0171378D01*
X0242858Y0171274D01*
X0242823Y0171170D01*
X0242784Y0171068D01*
X0242742Y0170968D01*
X0242696Y0170869D01*
X0242647Y0170772D01*
X0242594Y0170677D01*
X0242537Y0170584D01*
X0242477Y0170493D01*
X0242414Y0170404D01*
X0242348Y0170318D01*
X0242279Y0170234D01*
X0242206Y0170152D01*
X0242131Y0170073D01*
X0242053Y0169997D01*
X0241972Y0169924D01*
X0241889Y0169854D01*
X0241803Y0169787D01*
X0241715Y0169723D01*
X0241624Y0169663D01*
X0241531Y0169605D01*
X0241437Y0169551D01*
X0241340Y0169501D01*
X0241242Y0169454D01*
X0241142Y0169411D01*
X0241040Y0169371D01*
X0240937Y0169335D01*
X0240833Y0169303D01*
X0240728Y0169275D01*
X0240622Y0169250D01*
X0240515Y0169230D01*
X0240407Y0169213D01*
X0240299Y0169200D01*
X0240191Y0169191D01*
X0240082Y0169186D01*
X0239973Y0169185D01*
X0239864Y0169188D01*
X0239755Y0169195D01*
X0239647Y0169206D01*
X0239539Y0169221D01*
X0239431Y0169239D01*
X0239325Y0169262D01*
X0239219Y0169288D01*
X0239114Y0169319D01*
X0239011Y0169353D01*
X0238909Y0169390D01*
X0238808Y0169432D01*
X0238709Y0169477D01*
X0238611Y0169526D01*
X0238516Y0169578D01*
X0238422Y0169634D01*
X0238330Y0169692D01*
X0238241Y0169755D01*
X0238154Y0169820D01*
X0238069Y0169889D01*
X0237987Y0169960D01*
X0237908Y0170035D01*
X0237831Y0170112D01*
X0237757Y0170192D01*
X0237686Y0170275D01*
X0237619Y0170361D01*
X0237554Y0170448D01*
X0237492Y0170538D01*
X0237434Y0170630D01*
X0237380Y0170724D01*
X0237328Y0170821D01*
X0237280Y0170919D01*
X0237236Y0171018D01*
X0237196Y0171119D01*
X0237159Y0171222D01*
X0237126Y0171326D01*
X0237096Y0171430D01*
X0237071Y0171536D01*
X0237049Y0171643D01*
X0237032Y0171751D01*
X0237018Y0171859D01*
X0237008Y0171967D01*
X0237002Y0172076D01*
X0237000Y0172185D01*
M02*
